<svg width="1099" height="824" viewBox="0 0 1099 824" fill="none" xmlns="http://www.w3.org/2000/svg">
<path d="M171.004 585.768C171.004 585.768 141.812 570.414 131.688 548.042C121.563 525.685 131.454 494.345 128.404 483.825C147.087 503.574 158.572 509.301 166.732 532.084C174.892 554.882 172.516 579.368 171.004 585.768Z" fill="#FFB901" fill-opacity="0.5"/>
<path d="M201.763 623.054C201.763 623.054 171.705 646.868 140.068 623.878C117.95 605.255 103.237 579.849 103.237 579.849C103.237 579.849 138.79 584.642 156.58 588.83C174.356 593.019 195.388 613.578 201.763 623.054Z" fill="#FFB901" fill-opacity="0.5"/>
<path d="M953.492 585.768C953.492 585.768 982.685 570.414 992.809 548.042C1002.93 525.685 993.043 494.345 996.092 483.825C977.409 503.574 965.925 509.301 957.765 532.084C949.605 554.882 951.968 579.368 953.492 585.768Z" fill="#FFB901" fill-opacity="0.5"/>
<path d="M922.72 623.054C922.72 623.054 952.778 646.868 984.415 623.878C1006.53 605.255 1021.25 579.849 1021.25 579.849C1021.25 579.849 985.693 584.642 967.903 588.83C950.127 593.019 929.095 613.578 922.72 623.054Z" fill="#FFB901" fill-opacity="0.5"/>
<path d="M313.971 711.318C313.971 711.318 284.27 736.944 207.642 717.608C151.786 703.518 105.765 648.378 105.765 648.378C105.765 648.378 215.418 606.876 313.971 711.318Z" fill="#FFB901" fill-opacity="0.5"/>
<path d="M309.217 712.595C309.217 712.595 262.263 676.174 268.046 556.598C272.264 469.447 340.415 384.602 340.415 384.602C340.415 384.602 434.916 534.982 309.217 712.595Z" fill="#E5E5E5"/>
<path d="M804.717 707.266C804.717 707.266 834.046 732.563 909.713 713.474C964.869 699.562 1010.33 645.109 1010.33 645.109C1010.33 645.109 902.047 604.115 804.717 707.266Z" fill="#FFB901" fill-opacity="0.5"/>
<path d="M809.017 715.163C809.017 715.163 868.06 708.296 925.002 602.975C966.517 526.22 952.12 418.358 952.12 418.358C952.12 418.358 793.425 498.149 809.017 715.163Z" fill="#E5E5E5"/>
<path d="M811.283 712.993C811.283 712.993 858.238 676.572 852.455 556.996C848.237 469.845 780.085 385 780.085 385C780.085 385 685.585 535.38 811.283 712.993Z" fill="#E5E5E5"/>
<path d="M963.081 403.966C963.081 184.109 784.796 5.87787 564.859 5.87787C344.935 5.87787 166.636 184.109 166.636 403.966C166.636 529.379 224.677 707.377 315.331 780.342H814.373C905.04 707.377 963.081 529.379 963.081 403.966Z" fill="url(#paint0_linear_15_235)"/>
<path d="M519.25 128.379C519.25 129.244 518.549 129.945 517.684 129.945C516.819 129.945 516.118 129.244 516.118 128.379C516.118 127.514 516.819 126.814 517.684 126.814C518.549 126.814 519.25 127.514 519.25 128.379Z" fill="white"/>
<path d="M631.568 225.419C631.568 226.284 630.867 226.985 630.002 226.985C629.136 226.985 628.436 226.284 628.436 225.419C628.436 224.554 629.136 223.853 630.002 223.853C630.867 223.84 631.568 224.554 631.568 225.419Z" fill="white"/>
<path d="M444.504 249.562C444.504 250.427 443.804 251.128 442.938 251.128C442.073 251.128 441.372 250.427 441.372 249.562C441.372 248.697 442.073 247.997 442.938 247.997C443.804 247.997 444.504 248.697 444.504 249.562Z" fill="white"/>
<path d="M325.62 230.583C325.62 231.448 324.919 232.148 324.054 232.148C323.188 232.148 322.488 231.448 322.488 230.583C322.488 229.717 323.188 229.017 324.054 229.017C324.919 229.003 325.62 229.704 325.62 230.583Z" fill="white"/>
<path d="M786.225 326.167C786.225 327.032 785.524 327.732 784.658 327.732C783.793 327.732 783.092 327.032 783.092 326.167C783.092 325.301 783.793 324.601 784.658 324.601C785.524 324.601 786.225 325.301 786.225 326.167Z" fill="white"/>
<path d="M791.376 221.546L793.038 224.925L796.789 225.474L794.082 228.111L794.714 231.832L791.376 230.075L788.024 231.832L788.67 228.111L785.964 225.474L789.7 224.925L791.376 221.546Z" fill="white"/>
<path d="M403.924 83.9656L406.012 88.2092L410.696 88.8821L407.303 92.1781L408.114 96.8337L403.924 94.6364L399.748 96.8337L400.544 92.1781L397.165 88.8821L401.836 88.2092L403.924 83.9656Z" fill="white"/>
<path d="M872.331 291.243L874.433 295.473L879.104 296.159L875.724 299.455L876.521 304.111L872.331 301.914L868.155 304.111L868.952 299.455L865.572 296.159L870.243 295.473L872.331 291.243Z" fill="white"/>
<path d="M255.545 284.198C258.603 284.198 261.081 281.72 261.081 278.663C261.081 275.606 258.603 273.129 255.545 273.129C252.487 273.129 250.009 275.606 250.009 278.663C250.009 281.72 252.487 284.198 255.545 284.198Z" fill="white"/>
<mask id="mask0_15_235" style="mask-type:alpha" maskUnits="userSpaceOnUse" x="659" y="67" width="111" height="111">
<path d="M675.803 161.092C697.261 182.653 732.14 182.736 753.708 161.284C775.276 139.833 775.358 104.978 753.914 83.4163C732.456 61.8549 697.577 61.7725 676.009 83.224C654.441 104.662 654.358 139.531 675.803 161.092Z" fill="url(#paint1_linear_15_235)"/>
</mask>
<g mask="url(#mask0_15_235)">
<path d="M676.027 163.902C697.485 185.463 732.364 185.546 753.932 164.094C775.5 142.643 775.582 107.787 754.138 86.2261C732.68 64.6648 697.801 64.5824 676.233 86.0338C654.665 107.472 654.582 142.341 676.027 163.902Z" fill="url(#paint2_linear_15_235)"/>
</g>
<path d="M780.524 540.544C780.139 537.289 798.849 472.221 819.662 443.285C840.474 414.348 863.869 360.857 863.869 360.857C863.869 360.857 871.741 408.429 850.104 439.659C828.467 470.902 819.277 486.325 819.277 486.325C819.277 486.325 834.388 455.864 870.532 453.763C906.675 451.662 897.375 484.745 897.375 484.745C897.375 484.745 857.508 427.766 774.726 556.681" fill="#7CBAA2"/>
<path d="M731.069 603.649C731.069 603.649 674.25 616.874 635.785 593.321C597.32 569.782 572.098 536.383 572.098 536.383C572.098 536.383 615.069 521.922 642.778 527.648C670.486 533.375 694.733 564.715 694.802 562.188C694.87 559.661 665.238 519.573 662.834 493.205C660.43 466.823 672.959 417.425 672.959 417.425C672.959 417.425 709.446 445.523 718.526 467.51C727.62 489.483 734.681 536.932 734.681 536.932C734.681 536.932 729.846 495.43 746.661 461.014C763.489 426.599 806.226 398.761 806.226 398.761C806.226 398.761 822.121 441.719 809.07 483.619C796.019 525.52 765.783 553.069 765.783 553.069C765.783 553.069 807.614 522.897 833.427 518.749C859.239 514.615 895.053 537.028 895.053 537.028C895.053 537.028 858.429 577.761 830.116 585.067C801.789 592.387 773.325 588.638 773.325 588.638C773.325 588.638 812.601 589.311 835.721 604.94C858.841 620.568 878.513 652.828 878.513 652.828C878.513 652.828 823.783 659.31 789.274 641.786C754.766 624.249 731.069 603.649 731.069 603.649Z" fill="#405FFF"/>
<path d="M785.153 589.476C778.064 588.721 773.325 588.624 773.325 588.624C773.325 588.624 777.913 589.215 785.153 589.476Z" fill="url(#paint3_linear_15_235)"/>
<path d="M681.229 447.789C681.229 447.789 688.194 539.789 731.508 589.064C725.464 575.276 709.212 551.654 700.2 518.941C691.202 486.242 681.229 447.789 681.229 447.789Z" fill="url(#paint4_linear_15_235)"/>
<path d="M730.327 592.923C730.327 592.923 648.877 569.343 617.404 554.689C594.037 544.485 583.143 539.294 583.143 539.294C583.143 539.294 600.796 553.687 651.212 573.119C701.629 592.538 730.327 592.923 730.327 592.923Z" fill="url(#paint5_linear_15_235)"/>
<path d="M740.547 594.695C740.547 594.695 790.497 607.961 832.506 629.467C852.384 639.809 864.886 647.252 864.886 647.252C864.886 647.252 830.789 631.981 807.312 622.669C783.834 613.331 740.547 594.695 740.547 594.695Z" fill="url(#paint6_linear_15_235)"/>
<path d="M353.713 513.97C354.098 510.715 335.387 445.647 314.575 416.711C293.763 387.774 270.368 334.283 270.368 334.283C270.368 334.283 262.496 381.855 284.133 413.085C305.769 444.328 314.96 459.751 314.96 459.751C314.96 459.751 299.848 429.29 263.705 427.189C227.562 425.088 236.862 458.171 236.862 458.171C236.862 458.171 276.728 401.192 359.51 530.107" fill="#7CBAA2"/>
<path d="M744.895 374.325C744.895 374.325 721.5 409.345 706.869 460.241C692.225 511.137 698.036 568.254 698.036 568.254" stroke="#7CBAA2" stroke-width="2.3099" stroke-miterlimit="10"/>
<path d="M736.474 432.692C736.474 432.692 717.681 438.68 710.922 447.194C711.128 437.828 713.985 403.907 713.985 403.907" stroke="#7CBAA2" stroke-width="2.3099" stroke-miterlimit="10"/>
<path d="M724.563 487.021C724.563 487.021 706.485 490.084 699.52 496.827C695.165 486.691 691.14 460.282 691.14 460.282" stroke="#7CBAA2" stroke-width="2.3099" stroke-miterlimit="10"/>
<path d="M708.078 533.371C708.078 533.371 700.234 538.013 696.896 542.394C691.016 533.563 675.424 517.056 675.424 517.056" stroke="#7CBAA2" stroke-width="2.3099" stroke-miterlimit="10"/>
<path d="M742.135 409.417C742.135 409.417 765.145 408.73 775.173 392.855C785.202 376.979 787.207 363.149 787.207 363.149C787.207 363.149 765.928 366.363 753.413 377.528C740.871 388.707 742.135 409.417 742.135 409.417Z" fill="#FFB901" fill-opacity="0.5"/>
<path d="M736.474 432.692C736.474 432.692 749.043 413.191 766.078 405.143C781.162 399.059 801.823 410.348 801.823 410.348C801.823 410.348 799.323 425.729 776.257 434.422C760.899 440.204 745.266 436.359 736.474 432.692Z" fill="#FFB901" fill-opacity="0.5"/>
<path d="M743.781 376.477C743.781 376.477 739.036 355.301 749.342 341.502C759.648 327.703 768.428 326.798 768.428 326.798C768.428 326.798 772.888 341.087 767.497 354.054C762.104 367.043 743.781 376.477 743.781 376.477Z" fill="#FFB901" fill-opacity="0.5"/>
<path d="M692.321 464.897C692.321 464.897 700.358 432.198 685.301 419.288C670.231 406.393 664.352 403.358 664.352 403.358C664.352 403.358 658.376 428.654 664.97 442.319C671.578 455.997 692.321 464.897 692.321 464.897Z" fill="#FFB901" fill-opacity="0.5"/>
<path d="M720.03 487.776C720.03 487.776 739.935 468.673 754.841 468.66C769.746 468.646 785.173 475.307 785.173 475.307C785.173 475.307 775.831 494.368 752.711 494.931C729.605 495.508 720.03 487.776 720.03 487.776Z" fill="#FFB901" fill-opacity="0.5"/>
<path d="M678.103 519.816C678.103 519.816 674.05 494.492 655.079 489.466C638.924 485.497 632 489.205 632 489.205C632 489.205 632.783 501.592 642.289 511.961C651.796 522.343 678.103 519.816 678.103 519.816Z" fill="#FFB901" fill-opacity="0.5"/>
<path d="M705.756 534.744C705.756 534.744 709.699 520.05 722.173 516.232C735.072 512.51 746.117 519.143 746.117 519.143C746.117 519.143 744.496 534.497 730.058 538.027C715.606 541.556 705.756 534.744 705.756 534.744Z" fill="#FFB901" fill-opacity="0.5"/>
<path d="M714.727 406.475C714.727 406.475 723.189 382.442 717.887 370.81C712.584 359.177 700.921 354 700.921 354C700.921 354 691.868 367.431 695.137 380.368C698.407 393.305 714.727 406.475 714.727 406.475Z" fill="#FFB901" fill-opacity="0.5"/>
<path d="M350.815 378.436C350.815 378.436 383.647 404.804 412.922 448.943C442.196 493.082 453.832 549.306 453.832 549.306" stroke="#7CBAA2" stroke-width="2.3099" stroke-miterlimit="10"/>
<path d="M376.394 431.57C376.394 431.57 396.121 431.625 405.133 437.723C402.11 428.851 389.197 397.36 389.197 397.36" stroke="#7CBAA2" stroke-width="2.3099" stroke-miterlimit="10"/>
<path d="M404.089 479.815C404.089 479.815 422.25 477.302 430.918 481.642C432.017 470.669 427.923 444.273 427.923 444.273" stroke="#7CBAA2" stroke-width="2.3099" stroke-miterlimit="10"/>
<path d="M433.748 519.051C433.748 519.051 442.636 521.125 447.128 524.297C450.082 514.107 459.986 493.672 459.986 493.672" stroke="#7CBAA2" stroke-width="2.3099" stroke-miterlimit="10"/>
<path d="M354.51 380.688C354.51 380.688 332.351 386.95 318.023 374.81C303.695 362.67 297.609 350.09 297.609 350.09C297.609 350.09 318.875 346.767 334.178 353.647C349.482 360.555 354.51 380.688 354.51 380.688Z" fill="#FFB901" fill-opacity="0.5"/>
<path d="M376.394 431.57C376.394 431.57 358.549 416.752 339.879 414.197C323.669 412.934 307.363 429.908 307.363 429.908C307.363 429.908 314.369 443.82 338.987 445.18C355.362 446.072 369.113 437.723 376.394 431.57Z" fill="#FFB901" fill-opacity="0.5"/>
<path d="M428.198 449.025C428.198 449.025 410.696 420.254 421.192 403.417C431.687 386.593 436.385 381.924 436.385 381.924C436.385 381.924 449.697 404.254 447.513 419.279C445.301 434.303 428.198 449.025 428.198 449.025Z" fill="#FFB901" fill-opacity="0.5"/>
<path d="M408.636 479.17C408.636 479.17 383.908 466.933 369.69 471.397C355.472 475.86 342.751 486.847 342.751 486.847C342.751 486.847 357.395 502.228 379.608 495.815C401.836 489.415 408.636 479.17 408.636 479.17Z" fill="#FFB901" fill-opacity="0.5"/>
<path d="M458.269 497.133C458.269 497.133 454.519 471.767 471.1 461.275C485.305 452.623 493.025 454.093 493.025 454.093C493.025 454.093 496.006 466.137 490.058 478.895C484.109 491.64 458.269 497.133 458.269 497.133Z" fill="#FFB901" fill-opacity="0.5"/>
<path d="M436.385 519.669C436.385 519.669 428.198 506.842 415.161 506.952C401.739 507.282 393.195 516.936 393.195 516.936C393.195 516.936 399.349 531.095 414.186 530.107C429.036 529.132 436.385 519.669 436.385 519.669Z" fill="#FFB901" fill-opacity="0.5"/>
<path d="M389.266 400.038C389.266 400.038 373.962 379.658 375.528 366.968C377.094 354.279 386.669 345.847 386.669 345.847C386.669 345.847 399.349 355.941 400.105 369.262C400.86 382.569 389.266 400.038 389.266 400.038Z" fill="#FFB901" fill-opacity="0.5"/>
<path d="M703.593 718.61C703.593 718.61 654.496 750.101 610.357 740.817C566.219 731.533 531.257 708.503 531.257 708.503C531.257 708.503 566.905 680.487 594.93 676.6C622.954 672.714 656.309 694.11 655.526 691.707C654.743 689.303 613.393 661.466 602.279 637.419C591.166 613.372 586.413 562.641 586.413 562.641C586.413 562.641 630.208 576.896 646.143 594.557C662.079 612.218 684.65 654.544 684.65 654.544C684.65 654.544 666.186 617.066 670.486 578.997C674.8 540.929 705.737 500.374 705.737 500.374C705.737 500.374 735.121 535.518 736.866 579.368C738.624 623.219 719.364 659.31 719.364 659.31C719.364 659.31 748.652 616.86 771.594 604.308C794.536 591.756 835.789 600.875 835.789 600.875C835.789 600.875 814.95 651.509 790.717 667.893C766.484 684.277 738.404 690.292 738.404 690.292C738.404 690.292 775.633 677.767 802.655 684.744C829.676 691.721 859.033 715.52 859.033 715.52C859.033 715.52 809.647 739.966 771.251 735.022C732.827 730.091 703.593 718.61 703.593 718.61Z" fill="url(#paint7_linear_15_235)"/>
<path d="M749.806 687.147C742.883 688.809 738.377 690.306 738.377 690.306C738.377 690.306 742.883 689.331 749.806 687.147Z" fill="url(#paint8_linear_15_235)"/>
<path d="M604.381 588.473C604.381 588.473 641.789 672.824 699.129 704.726C688.812 693.767 665.582 676.957 646.13 649.161C626.663 621.365 604.381 588.473 604.381 588.473Z" fill="url(#paint9_linear_15_235)"/>
<path d="M699.307 708.764C699.307 708.764 614.671 713.831 580.107 710.576C554.665 708.791 542.672 707.555 542.672 707.555C542.672 707.555 564.13 715.205 618.146 716.605C672.148 718.02 699.307 708.764 699.307 708.764Z" fill="url(#paint10_linear_15_235)"/>
<path d="M415.23 599.941C415.23 599.941 469.273 577.995 487.132 536.575C504.977 495.169 506.323 453.337 506.323 453.337C506.323 453.337 462.871 466.302 443.529 486.943C424.2 507.584 422.456 547.177 420.944 545.145C419.433 543.112 420.519 493.301 407.276 470.353C394.033 447.418 355.307 414.28 355.307 414.28C355.307 414.28 341.707 458.268 346.954 481.463C352.202 504.659 373.784 547.493 373.784 547.493C373.784 547.493 353.796 510.798 320.207 492.367C286.605 473.951 235.626 475.833 235.626 475.833C235.626 475.833 247.412 520.095 282.237 546.806C317.061 573.518 357.656 578.599 357.656 578.599C357.656 578.599 306.072 578.05 282.594 589.558C259.117 601.053 242.783 640.014 242.783 640.014C242.783 640.014 296.194 652.182 323.559 641.827C350.924 631.486 372.025 612.012 372.025 612.012C372.025 612.012 340.319 635.194 330.456 661.301C320.592 687.395 323.106 725.092 323.106 725.092C323.106 725.092 371.558 698.848 389.65 664.638C407.756 630.429 415.23 599.941 415.23 599.941Z" fill="url(#paint11_linear_15_235)"/>
<path d="M362.862 619.538C368.22 614.841 372.025 612.026 372.025 612.026C372.025 612.026 368.632 615.143 362.862 619.538Z" fill="url(#paint12_linear_15_235)"/>
<path d="M461.566 716.495C461.566 716.495 513.288 743.468 556.424 730.256C599.546 717.045 632.31 690.993 632.31 690.993C632.31 690.993 594.298 666.273 566.04 664.913C537.782 663.553 506.474 687.861 507.051 685.389C507.628 682.931 546.299 651.496 555.215 626.556C564.13 601.616 564.309 550.652 564.309 550.652C564.309 550.652 521.97 568.766 507.683 587.787C493.396 606.807 474.713 650.987 474.713 650.987C474.713 650.987 489.742 612.012 482.049 574.479C474.342 536.96 439.888 499.344 439.888 499.344C439.888 499.344 413.773 536.973 415.971 580.81C418.156 624.633 440.562 658.857 440.562 658.857C440.562 658.857 407.578 619.209 383.62 608.757C359.648 598.306 319.369 611.092 319.369 611.092C319.369 611.092 344.674 659.667 370.281 673.812C395.874 687.958 424.393 691.432 424.393 691.432C424.393 691.432 386.189 682.286 359.895 691.666C333.615 701.045 306.511 727.372 306.511 727.372C306.511 727.372 357.889 747.299 395.681 738.922C433.487 730.545 461.566 716.495 461.566 716.495Z" fill="url(#paint13_linear_15_235)"/>
<path opacity="0.3" d="M439.888 499.344C439.888 499.344 474.342 536.96 482.049 574.479C489.742 611.999 474.713 650.987 474.713 650.987C474.713 650.987 493.396 606.807 507.683 587.787C521.97 568.766 564.309 550.652 564.309 550.652C564.309 550.652 564.117 601.616 555.215 626.556C546.299 651.496 507.628 682.931 507.051 685.389C506.474 687.861 537.796 663.54 566.04 664.913C594.298 666.273 632.31 690.993 632.31 690.993C632.31 690.993 599.546 717.059 556.424 730.256C513.288 743.468 461.566 716.495 461.566 716.495C461.566 716.495 461.085 716.743 460.179 717.168C464.575 621.488 439.888 499.344 439.888 499.344Z" fill="#FFB901" fill-opacity="0.5"/>
<path d="M412.729 689.29C419.777 690.333 424.393 691.418 424.393 691.418C424.393 691.418 419.804 690.855 412.729 689.29Z" fill="url(#paint14_linear_15_235)"/>
<path d="M548.703 577.981C548.703 577.981 519.003 665.339 464.767 702.254C474.067 690.416 495.69 671.587 512.574 642.157C529.471 612.74 548.703 577.981 548.703 577.981Z" fill="url(#paint15_linear_15_235)"/>
<path d="M464.959 706.292C464.959 706.292 549.72 703.765 583.844 697.42C609.025 693.369 620.866 691.061 620.866 691.061C620.866 691.061 600.178 700.592 546.519 706.841C492.847 713.09 464.959 706.292 464.959 706.292Z" fill="url(#paint16_linear_15_235)"/>
<path d="M457.088 704.383C457.088 704.383 425.093 671.203 395.338 649.491C365.596 627.764 331.678 615.775 331.678 615.775C331.678 615.775 376.215 642.445 392.92 654.435C409.611 666.424 457.088 704.383 457.088 704.383Z" fill="url(#paint17_linear_15_235)"/>
<path d="M332.006 359.849C332.006 359.849 337.776 388.373 308.322 403.96C298.473 407.38 280.092 407.696 269.885 397.959C284.872 405.237 298.212 406.46 308.075 402.614C313.666 397.931 329.767 391.82 332.006 359.849Z" fill="black"/>
<path d="M316.221 362.788C316.221 362.788 322.664 387.192 307.924 403.328C293.294 400.101 281.177 388.936 277.647 380.998C282.386 386.45 295.327 399.318 307.251 402.202C312.828 392.809 318.365 380.943 316.221 362.788Z" fill="black"/>
<path d="M306.234 376.246C306.234 376.246 313.68 393.179 308.446 402.738C305.657 401.104 292.222 388.95 288.417 370.341C293.994 380.723 295.959 389.98 307.622 400.032C309.105 393.688 306.729 378.787 306.234 376.246Z" fill="black"/>
<path d="M332.363 366.042C332.363 366.042 336.635 363.529 337.116 357.116C337.583 350.688 333.778 348.395 331.786 351.142C330.921 349.205 330.055 350.167 330.041 351.416C328.846 350.208 326.47 350.139 326.167 352.941C325.865 355.742 328.297 365.465 332.363 366.042Z" fill="url(#paint18_linear_15_235)"/>
<path d="M316.634 367.786C316.634 367.786 321.51 364.724 319.271 357.541C317.884 353.847 315.988 353.559 315.548 354.534C315.013 354.094 312.732 353.751 312.609 355.715C311.468 355.111 309.504 356.731 310.04 359.011C310.575 361.291 311.839 366.674 316.634 367.786Z" fill="url(#paint19_linear_15_235)"/>
<path d="M307.622 382.097C307.622 382.097 311.496 379.515 309.243 373.376C307.8 369.201 305.767 370.602 305.74 371.481C304.957 370.313 303.638 370.533 303.487 371.563C302.36 371.028 300.932 372.634 301.467 374.9C301.989 377.18 303.665 381.794 307.622 382.097Z" fill="url(#paint20_linear_15_235)"/>
<path d="M290.601 376.15C290.601 376.15 294.338 374.365 293.307 368.61C292.291 362.87 289.131 359.231 287.95 361.538C286.796 360.659 284.859 358.983 283.1 362.307C280.998 362.801 281.342 366.056 282.276 368.446C283.197 370.835 286.603 376.315 290.601 376.15Z" fill="url(#paint21_linear_15_235)"/>
<path d="M276.726 401.996C276.726 401.996 277.839 398.014 272.838 395.006C267.838 391.998 263.016 391.985 263.992 394.388C262.577 394.676 260.035 395.033 261.381 398.549C260.365 400.458 263.044 402.34 265.461 403.218C267.852 404.07 274.226 405.114 276.726 401.996Z" fill="url(#paint22_linear_15_235)"/>
<path d="M280.861 384.857C280.861 384.857 282.661 383.03 280.435 379.103C278.979 376.164 274.459 371.192 273.759 374.996C271.657 375.038 269.253 374.488 270.256 378.746C268.346 379.858 270.05 381.877 271.987 383.841C273.924 385.818 278.965 386.491 280.861 384.857Z" fill="url(#paint23_linear_15_235)"/>
<path d="M309.27 400.939C309.27 400.939 309.353 401.09 309.504 401.378C312.1 406.363 335.207 451.711 325.934 465.774C326.854 458.619 325.728 449.665 319.381 431.605C313.034 413.546 307.265 402.216 307.265 402.216L309.366 401.09" fill="black"/>
<path d="M657.6 315.441C657.6 315.441 651.831 343.965 681.284 359.552C691.147 362.972 709.514 363.288 719.721 353.551C704.734 360.83 691.395 362.052 681.531 358.207C675.954 353.537 659.853 347.426 657.6 315.441Z" fill="black"/>
<path d="M673.385 318.394C673.385 318.394 666.942 342.798 681.682 358.934C696.313 355.707 708.429 344.542 711.96 336.604C707.22 342.056 694.28 354.924 682.355 357.808C676.778 348.415 671.255 336.549 673.385 318.394Z" fill="black"/>
<path d="M683.372 331.852C683.372 331.852 675.926 348.785 681.16 358.344C683.949 356.71 697.384 344.556 701.189 325.947C695.612 336.329 693.648 345.586 681.984 355.638C680.515 349.294 682.891 334.393 683.372 331.852Z" fill="black"/>
<path d="M657.243 321.648C657.243 321.648 652.971 319.135 652.49 312.722C652.023 306.295 655.828 304.001 657.82 306.748C658.686 304.811 659.551 305.773 659.565 307.022C660.76 305.814 663.137 305.745 663.439 308.547C663.755 311.348 661.309 321.058 657.243 321.648Z" fill="url(#paint24_linear_15_235)"/>
<path d="M672.986 323.393C672.986 323.393 668.11 320.33 670.349 313.147C671.736 309.453 673.632 309.165 674.072 310.14C674.607 309.7 676.888 309.357 677.011 311.321C678.152 310.717 680.116 312.337 679.58 314.617C679.045 316.897 677.781 322.28 672.986 323.393Z" fill="url(#paint25_linear_15_235)"/>
<path d="M681.998 337.703C681.998 337.703 678.124 335.121 680.377 328.982C681.82 324.807 683.853 326.208 683.88 327.087C684.663 325.919 685.982 326.139 686.133 327.169C687.26 326.634 688.688 328.24 688.153 330.506C687.631 332.772 685.941 337.401 681.998 337.703Z" fill="url(#paint26_linear_15_235)"/>
<path d="M699.019 331.742C699.019 331.742 695.282 329.957 696.313 324.203C697.329 318.462 700.489 314.823 701.67 317.13C702.824 316.251 704.761 314.576 706.52 317.899C708.621 318.394 708.278 321.648 707.358 324.038C706.423 326.441 703.003 331.921 699.019 331.742Z" fill="url(#paint27_linear_15_235)"/>
<path d="M712.894 357.589C712.894 357.589 711.781 353.606 716.782 350.598C721.782 347.591 726.604 347.577 725.628 349.98C727.043 350.269 729.585 350.626 728.239 354.141C729.255 356.05 726.576 357.932 724.159 358.811C721.755 359.676 715.394 360.72 712.894 357.589Z" fill="url(#paint28_linear_15_235)"/>
<path d="M708.759 340.463C708.759 340.463 706.959 338.637 709.185 334.709C710.641 331.77 715.161 326.798 715.861 330.603C717.963 330.644 720.367 330.094 719.364 334.352C721.274 335.464 719.57 337.483 717.633 339.447C715.696 341.424 710.655 342.097 708.759 340.463Z" fill="url(#paint29_linear_15_235)"/>
<path d="M680.35 356.531C680.35 356.531 680.267 356.682 680.116 356.971C677.52 361.956 654.413 407.303 663.686 421.366C662.766 414.211 663.892 405.257 670.239 387.198C676.586 369.138 682.355 357.808 682.355 357.808L680.254 356.682" fill="black"/>
<path d="M572.181 818.081C794.806 818.081 975.28 803.871 975.28 786.343C975.28 768.815 794.806 754.605 572.181 754.605C349.555 754.605 169.081 768.815 169.081 786.343C169.081 803.871 349.555 818.081 572.181 818.081Z" fill="url(#paint30_linear_15_235)"/>
<path d="M416.356 780.781L421.343 764.109C421.343 764.109 422.497 758.931 432.649 758.931C442.801 758.931 630.991 758.931 630.991 758.931C630.991 758.931 640.387 758.519 643.066 765.441C646.638 774.656 647.668 779.229 647.668 779.229C647.668 779.229 650.924 786.316 638.849 786.316C626.773 786.316 421.728 786.316 421.728 786.316C421.728 786.316 416.356 786.728 416.356 780.781Z" fill="url(#paint31_linear_15_235)"/>
<path d="M421.714 786.343C421.714 786.343 626.76 786.343 638.835 786.343C647.284 786.343 648.218 782.869 648.025 780.781H416.356C416.356 786.728 421.714 786.343 421.714 786.343Z" fill="black"/>
<path d="M771.003 710.096C771.003 722.785 760.7 733.085 748.007 733.085H314.149C301.456 733.085 291.153 722.785 291.153 710.096V435.251C291.153 422.561 301.456 412.261 314.149 412.261H748.007C760.714 412.261 771.003 422.547 771.003 435.251V710.096Z" fill="url(#paint32_linear_15_235)"/>
<path d="M750.054 434.742H314.657V682.519H750.054V434.742Z" fill="#93C8FD"/>
<path d="M750.054 434.742H314.657V482.219H750.054V434.742Z" fill="url(#paint33_linear_15_235)"/>
<path opacity="0.5" d="M649.276 451.676C649.276 453.955 647.435 455.796 645.154 455.796H379.746C377.465 455.796 375.624 453.955 375.624 451.676C375.624 449.396 377.465 447.556 379.746 447.556H645.154C647.435 447.556 649.276 449.396 649.276 451.676Z" fill="url(#paint34_linear_15_235)"/>
<path opacity="0.5" d="M537.205 469.378C537.205 471.658 536.12 473.498 534.773 473.498H378.07C376.723 473.498 375.638 471.658 375.638 469.378C375.638 467.098 376.723 465.258 378.07 465.258H534.773C536.12 465.258 537.205 467.098 537.205 469.378Z" fill="url(#paint35_linear_15_235)"/>
<path d="M342.792 476.121C352.541 476.121 360.445 468.22 360.445 458.474C360.445 448.727 352.541 440.826 342.792 440.826C333.043 440.826 325.139 448.727 325.139 458.474C325.139 468.22 333.043 476.121 342.792 476.121Z" fill="url(#paint36_linear_15_235)"/>
<path d="M342.201 459.462C346.806 459.462 350.54 455.73 350.54 451.126C350.54 446.522 346.806 442.79 342.201 442.79C337.596 442.79 333.862 446.522 333.862 451.126C333.862 455.73 337.596 459.462 342.201 459.462Z" fill="white"/>
<path d="M356.145 469.982C353.672 464.75 348.369 461.124 342.201 461.124C336.39 461.124 331.335 464.338 328.711 469.076C331.925 473.347 337.036 476.107 342.792 476.107C348.136 476.107 352.903 473.731 356.145 469.982Z" fill="white"/>
<path d="M561.754 513.846C561.754 525.19 550.434 534.391 536.463 534.391C522.492 534.391 511.172 525.19 511.172 513.846C511.172 502.503 522.492 493.301 536.463 493.301C550.42 493.315 561.754 502.503 561.754 513.846Z" fill="#260B09"/>
<path d="M456.497 683.398C456.497 683.398 459.478 645.467 487.736 635.428C516.008 625.389 566.96 626.501 586.674 635.428C606.387 644.354 614.945 656.618 617.542 668.154C620.152 679.676 619.781 683.398 619.781 683.398H456.497Z" fill="#E658B1"/>
<path d="M539.293 666.767C553.855 666.767 565.655 655.025 565.655 640.55C565.655 636.705 564.817 633.066 563.32 629.77C548.841 627.943 531.367 627.792 515.349 629.577C513.796 632.914 512.931 636.622 512.931 640.536C512.931 655.025 524.731 666.767 539.293 666.767Z" fill="#FFC3C3"/>
<path d="M515.349 629.591C515.349 629.591 522.836 625.031 522.836 615.583C522.836 606.134 555.627 612.809 555.627 612.809C555.627 612.809 558.883 626.446 563.334 629.769" fill="#FFC3C3"/>
<path d="M509.304 610.529C503.905 600.682 504.839 597.702 504.839 597.702C504.839 597.702 497.957 593.06 497.586 585.246C497.215 577.432 499.441 576.69 499.441 576.69H505.76C505.76 576.69 506.131 565.003 512.917 556.9C519.703 548.798 521.379 547.136 521.379 547.136C521.379 547.136 533.097 554.03 544.252 556.9C555.407 559.771 565.82 564.797 568.609 570.551C571.398 576.319 571.398 576.319 571.398 576.319C571.398 576.319 577.909 573.902 578.83 578.173C579.764 582.444 578.637 591.193 576.219 593.047C573.802 594.901 571.576 594.53 571.576 594.53C571.576 594.53 569.158 608.291 561.905 616.462C554.652 624.647 546.519 631.143 539.266 631.143C529.237 631.157 514.703 620.376 509.304 610.529Z" fill="#FFC3C3"/>
<path d="M504.839 589.146C504.839 589.146 494.797 574.465 494.055 560.883C493.314 547.315 496.281 533.375 502.985 527.415C509.675 521.468 519.168 522.21 519.168 522.21C519.168 522.21 526.229 514.588 546.313 517.197C566.397 519.807 573.087 531.137 577.923 542.11C582.759 553.083 578.321 566.569 576.989 571.114C575.67 575.66 571.961 585.425 571.961 585.425C571.961 585.425 571.686 574.52 567.455 568.725C563.224 562.929 551.712 559.125 545.186 557.148C538.661 555.17 528.674 551.119 525.02 549.127C521.379 547.136 521.379 547.136 521.379 547.136C521.379 547.136 510.417 557.917 508.452 564.577C506.502 571.224 504.839 589.146 504.839 589.146Z" fill="#260B09"/>
<path d="M524.937 698.862C524.937 695.47 527.685 692.737 531.064 692.737C534.444 692.737 537.191 695.483 537.191 698.862C537.191 702.24 534.444 704.987 531.064 704.987C527.685 704.987 524.937 702.24 524.937 698.862Z" stroke="#231F20" stroke-width="3.6779" stroke-miterlimit="10" stroke-linecap="round" stroke-linejoin="round"/>
<path d="M291.249 712.142C292.279 723.884 302.143 733.085 314.149 733.085H748.007C760.013 733.085 769.877 723.884 770.907 712.142H291.249Z" fill="#A1BAFF"/>
<path d="M553.182 733.085H511.021V767.954H553.182V733.085Z" fill="url(#paint37_linear_15_235)"/>
<path d="M565.765 295.761C565.765 295.761 572.016 300.87 573.898 301.694C575.78 302.532 582.855 303.575 583.803 305.127C584.737 306.693 584.215 318.462 585.575 323.461C586.935 328.46 589.531 338.568 587.869 342.839C586.207 347.11 583.281 349.609 583.281 351.065C583.281 352.521 582.346 368.355 582.346 368.355C582.346 368.355 560.669 373.986 548.483 379.603C536.298 385.22 529.306 390.961 529.306 390.961C529.306 390.961 533.372 381.485 535.46 374.082C537.548 366.68 540.777 353.867 540.667 349.706C540.557 345.544 530.872 298.865 530.872 298.865C530.872 298.865 534.21 299.387 535.872 299.071C537.535 298.755 544.939 296.049 547.439 294.594C549.94 293.138 550.778 291.888 550.778 291.888L565.765 295.761Z" fill="url(#paint38_linear_15_235)"/>
<path d="M595.356 328.584C595.356 328.584 642.874 324.835 642.462 325.878C642.049 326.922 632.255 364.84 632.255 364.84L584.105 370.47L595.356 328.584Z" fill="url(#paint39_linear_15_235)"/>
<path d="M642.462 325.878L640.896 324.629L593.694 327.018L582.333 369.729L584.105 370.457L595.356 328.584L642.462 325.878Z" fill="black"/>
<path d="M582.635 367.861L565.655 366.927V369.317L582.333 369.729L582.635 367.861Z" fill="black"/>
<path d="M565.655 366.927L583.335 365.252L582.635 367.861L565.655 366.927Z" fill="#FFC3C3"/>
<path d="M585.698 355.941C585.698 355.941 583.404 355.597 580.354 355.941C577.305 356.284 577.305 356.284 577.305 356.284C577.305 356.284 576.467 359.621 576.604 361.846C576.741 364.071 576.673 365.183 576.673 365.183L583.267 364.771L585.698 355.941Z" fill="#FFC3C3"/>
<path d="M538.043 298.467C540.942 297.505 545.544 295.72 547.412 294.621C549.912 293.165 550.75 291.916 550.75 291.916L565.751 295.775C565.751 295.775 572.002 300.884 573.884 301.708C574.324 301.9 575.052 302.106 575.917 302.326C575.89 302.394 575.862 302.435 575.862 302.435C575.862 302.435 575.024 310.662 572.95 315.565C570.862 320.467 567.84 321.085 564.515 321.497C561.191 321.909 552.22 314.205 547.22 308.794C543.62 304.894 539.87 300.581 538.043 298.467Z" fill="url(#paint40_linear_15_235)"/>
<path d="M554.294 250.977C554.294 250.977 545.75 249.617 543.978 253.998C542.205 258.379 542.934 273.17 541.271 277.963C539.609 282.756 539.183 285.667 538.881 288.482C538.565 291.298 538.359 291.82 536.999 293.591C535.639 295.363 534.705 298.796 534.705 298.796C534.705 298.796 536.367 299.318 541.367 297.34C546.368 295.363 550.75 291.929 550.75 291.929L554.294 250.977Z" fill="black"/>
<path d="M578.472 266.591C578.472 266.591 577.222 273.678 575.972 276.589C574.722 279.501 574.2 280.97 574.2 280.97C574.2 280.97 573.06 289.1 568.265 294.621C563.471 300.142 560.655 299.826 557.839 298.892C555.022 297.958 549.61 292.644 548.978 287.013C548.346 281.382 548.346 280.86 548.346 280.86C548.346 280.86 544.486 280.545 543.758 276.479C543.03 272.414 544.17 268.349 546.78 269.297C549.39 270.231 549.692 276.905 549.692 276.905C549.692 276.905 554.377 267.113 556.575 265.232C558.759 263.35 565.642 262.32 569.076 263.35C572.538 264.408 578.472 266.591 578.472 266.591Z" fill="#FFC3C3"/>
<path d="M578.472 266.591C578.472 266.591 579.832 262.005 575.34 255.756C570.862 249.507 562.111 246.486 555.338 250.441C548.566 254.396 545.86 260.755 545.338 263.886C544.815 267.017 544.609 269.613 544.609 269.613C544.609 269.613 546.272 268.363 547.742 270.245C549.198 272.126 549.72 276.905 549.72 276.905C549.72 276.905 551.382 276.383 552.536 273.362C553.676 270.341 556.396 265.232 558.69 264.298C560.985 263.364 565.147 262.732 567.551 263.254C569.955 263.776 578.472 266.591 578.472 266.591Z" fill="black"/>
<path d="M583.789 305.141C583.789 305.141 589.105 303.232 591.468 308.643C593.831 314.054 596.881 326.84 596.881 326.84L593.68 327.018L587.704 348.373L586.454 345.462C586.454 345.462 588.954 343.663 588.253 337.538C587.553 331.427 585.053 322.404 584.778 319.067C584.517 315.729 583.789 305.141 583.789 305.141Z" fill="url(#paint41_linear_15_235)"/>
<path d="M529.278 390.988C529.278 390.988 543.936 380.468 554.913 376.719C565.889 372.97 577.703 369.77 577.703 369.77L582.319 369.729L584.64 370.594L607.294 367.683C607.294 367.683 613.956 375.456 618.545 390.878C623.133 406.301 624.246 418.235 625.358 422.273C626.471 426.296 628.834 430.746 628.834 430.746C628.834 430.746 625.221 433.946 621.471 435.745C617.72 437.558 617.72 437.558 617.72 437.558C617.72 437.558 607.582 419.224 605.357 411.437C603.131 403.664 603.131 403.664 603.131 403.664C603.131 403.664 600.494 387.967 592.43 386.442C584.366 384.918 581.316 394.641 578.816 400.327C576.316 406.026 570.065 413.662 565.477 414.499C560.888 415.337 541.999 414.774 537.961 413.112C533.935 411.437 528.111 403.032 529.278 390.988Z" fill="url(#paint42_linear_15_235)"/>
<path d="M567.592 413.703C571.823 411.451 576.687 405.188 578.816 400.327C581.316 394.627 584.38 384.904 592.43 386.442C600.494 387.967 603.131 403.664 603.131 403.664C603.131 403.664 603.131 403.678 603.557 405.175C603.543 405.353 603.543 405.463 603.543 405.463C603.543 405.463 605.206 419.347 603.681 429.908C602.156 440.469 597.526 467.963 597.526 467.963C597.526 467.963 586.028 467.551 586.028 467.126C586.028 466.7 585.053 450.879 584.077 443.518C583.102 436.157 582.127 426.846 582.127 420.872C582.127 414.898 582.264 413.099 582.264 413.099L567.537 413.936C567.565 413.936 567.579 413.854 567.592 413.703Z" fill="url(#paint43_linear_15_235)"/>
<path d="M597.018 467.977C597.018 467.977 596.606 474.226 596.606 477.247C596.606 480.268 597.238 489.016 595.246 494.853C593.268 500.69 591.18 504.961 585.973 505.483C580.767 506.005 578.788 503.093 578.569 499.028C578.363 494.963 579.091 490.17 581.179 483.194C583.267 476.217 585.973 472.77 585.973 472.77L586.701 467.359L597.018 467.977Z" fill="black"/>
<path d="M583.281 477.549C584.737 474.349 585.973 472.77 585.973 472.77L586.701 467.359L597.018 467.991C597.018 467.991 596.606 474.239 596.606 477.261C596.606 478.263 596.675 479.898 596.688 481.848C595.438 481.449 594.009 480.969 593.79 480.804C593.378 480.488 591.496 477.261 588.995 477.893C586.495 478.524 585.341 479.142 585.341 479.142L583.281 477.549Z" fill="#FFC3C3"/>
<path d="M628.491 431.309L632.763 436.94C632.763 436.94 633.807 436.94 635.469 437.352C637.131 437.764 648.698 440.057 651.309 439.535C653.919 439.013 658.809 438.698 660.375 439.947C661.941 441.197 662.354 443.806 662.354 443.806C662.354 443.806 656.831 449.533 651.309 451.415C645.786 453.296 634.109 456.62 631.403 457.773C628.697 458.913 622.446 459.545 622.446 459.545C622.446 459.545 619.946 452.142 619.424 449.547C618.902 446.938 619.74 442.776 619.74 442.776L617.858 437.256C617.858 437.242 625.578 434.427 628.491 431.309Z" fill="black"/>
<path d="M632.763 436.926C632.763 436.926 632.131 442.131 631.307 443.079C630.469 444.012 626.512 446.512 625.578 446.1C624.644 445.688 623.078 442.873 622.24 442.763C621.402 442.653 619.74 442.763 619.74 442.763L617.72 437.558C617.72 437.558 622.034 435.47 624.534 434.015C627.034 432.559 628.491 431.309 628.491 431.309L632.763 436.926Z" fill="#FFC3C3"/>
<path d="M577.291 356.298C577.291 356.298 555.229 354.114 550.228 352.136C545.228 350.159 542.618 346.204 542.302 343.91C541.986 341.617 540.529 315.468 539.279 310.057C538.029 304.647 534.375 299.016 529.8 299.016C525.212 299.016 522.822 305.374 522.506 315.166C522.19 324.958 525.212 345.998 528.028 352.04C530.844 358.083 534.746 360.569 539.911 362.67C547.838 365.897 576.659 365.211 576.659 365.211C576.659 365.211 576.741 360.253 577.291 356.298Z" fill="url(#paint44_linear_15_235)"/>
<path d="M741.921 547.012C741.921 547.012 732.745 552.533 731.192 556.488C729.626 560.444 724.736 575.866 722.441 584.202C720.147 592.538 715.669 605.764 716.809 608.991C717.949 612.218 729.31 620.87 729.31 620.87C729.31 620.87 730.972 618.577 732.538 615.871C734.105 613.166 735.355 611.916 735.355 611.916L728.266 605.036L739.833 580.247C739.833 580.247 743.583 588.995 744.311 593.17C745.04 597.345 744.421 605.873 742.745 610.048C741.083 614.21 735.039 627.764 733.473 634.535C731.907 641.306 736.179 686.214 736.179 686.214C736.179 686.214 745.768 689.647 765.879 689.029C785.991 688.397 796.94 685.074 796.94 685.074C796.94 685.074 788.917 644.231 787.035 629.756C785.153 615.281 784.329 602.564 784.329 597.359C784.329 592.154 785.057 590.066 785.057 590.066C785.057 590.066 786.307 587.883 786.939 586.317C787.571 584.752 787.571 584.752 787.571 584.752C787.571 584.752 795.388 598.924 798.726 600.476C802.064 602.042 806.432 600.682 809.043 596.933C811.653 593.184 820.61 579.011 820.61 579.011L812.477 570.881L803.094 582.76C803.094 582.76 791.843 552.025 789.755 548.688C787.667 545.351 785.167 543.579 781.32 542.961C777.46 542.329 775.908 543.071 775.908 543.071L741.921 547.012Z" fill="url(#paint45_linear_15_235)"/>
<path d="M749.216 562.009C749.216 562.009 751.826 578.778 752.87 594.832C753.914 610.872 752.87 624.633 752.87 624.633L738.693 620.472L737.855 584.422L733.692 593.17L733.129 609.485L735.286 611.504L732.786 615.185L732.648 623.384C732.648 623.384 728.692 626.295 726.604 632.557C724.516 638.82 724.104 644.643 724.104 644.643L725.354 645.48C725.354 645.48 723.692 655.066 724.722 658.184C725.766 661.315 730.354 667.564 737.017 669.019C743.68 670.475 753.488 670.269 756.607 668.813C759.725 667.358 760.989 663.814 760.989 660.271C760.989 656.728 760.357 632.763 757.651 609.842C754.944 586.922 753.062 566.088 753.062 566.088L749.216 562.009Z" fill="#881FA4"/>
<path d="M760.055 516.483C760.055 516.483 762.761 515.439 764.011 512.624C765.261 509.809 767.349 508.353 769.328 507.625C771.306 506.897 775.262 504.81 776.828 501.898C778.394 498.987 779.438 496.378 779.438 496.378C779.438 496.378 783.917 499.921 784.343 503.038C784.755 506.169 784.233 511.471 784.233 512.83C784.233 514.19 786.417 518.667 784.439 523.46C782.461 528.253 777.556 536.163 775.784 537.001C774.012 537.839 771.622 537.001 771.622 537.001L771.21 541.382L775.894 543.043C775.894 543.043 780.166 552.725 780.166 555.335C780.166 557.944 777.556 562.105 771.622 560.54C765.687 558.974 761.937 555.541 760.261 553.659C758.585 551.778 757.76 550.322 757.76 550.322C757.76 550.322 759.739 545.117 759.849 541.574C759.959 538.031 760.055 533.238 760.055 531.054C760.055 528.871 758.695 524.174 758.695 524.174C758.695 524.174 753.584 519.903 754.106 516.566C754.628 513.228 758.805 513.05 760.055 516.483Z" fill="#FFC3C3"/>
<path d="M790.579 505.03C788.917 498.259 786.417 494.084 784.013 491.695C781.623 489.305 772.446 489.195 772.446 489.195C772.446 489.195 763.695 487.314 756.922 489.923C750.15 492.532 742.649 501.171 740.245 513.984C737.855 526.797 738.885 537.839 740.973 544.925C743.061 552.011 746.18 557.422 749.202 562.009C752.224 566.596 758.475 570.963 758.475 570.661C758.475 570.345 756.813 553.261 757.747 550.35C757.747 550.35 759.725 545.145 759.835 541.601C759.945 538.058 760.041 533.265 760.041 531.082C760.041 528.898 758.681 524.201 758.681 524.201C758.681 524.201 753.571 519.93 754.093 516.593C754.615 513.256 758.777 513.05 760.027 516.483C760.027 516.483 762.733 515.439 763.984 512.624C765.234 509.809 767.322 508.353 769.3 507.625C771.278 506.897 775.235 504.81 776.801 501.898C778.367 498.987 779.411 496.378 779.411 496.378C779.411 496.378 783.889 499.921 784.315 503.038C784.727 506.169 784.205 511.471 784.205 512.83C784.205 514.19 786.389 518.667 784.411 523.46C782.433 528.253 777.529 536.163 775.757 537.001C773.984 537.839 771.594 537.001 771.594 537.001L771.182 541.382L771.965 541.656C772.061 541.615 772.116 541.588 772.116 541.588H776.182C776.182 541.588 782.543 537.523 785.043 532.524C787.557 527.525 792.255 511.8 790.579 505.03Z" fill="black"/>
<path d="M730.134 619.524C730.134 619.524 743.061 628.698 743.789 629.632C744.518 630.566 747.444 637.446 754.216 638.902C760.989 640.358 761.126 639.63 761.126 639.63C761.126 639.63 764.423 635.881 763.077 634.631C761.717 633.381 757.142 631.198 755.782 629.632C754.422 628.067 753.007 625.608 753.007 625.608V623.589L747.141 623.383L734.53 612.658C734.517 612.644 730.766 617.643 730.134 619.524Z" fill="#FFC3C3"/>
<path d="M812.985 571.705C812.985 571.705 817.89 563.891 817.89 563.479C817.89 563.067 816.007 557.326 816.433 554.415C816.845 551.503 816.749 543.689 817.999 544.513C819.25 545.351 820.39 547.946 820.39 547.946L821.434 549.608C821.434 549.608 839.567 540.654 840.185 541.176C840.817 541.698 841.436 542.631 840.707 543.675C839.979 544.719 835.185 547.63 835.185 547.63C835.185 547.63 837.369 548.674 836.847 550.858C836.325 553.041 835.185 551.901 835.185 552.217C835.185 552.533 835.391 555.239 833.523 558.15C831.641 561.062 826.022 565.964 826.022 565.964L819.662 577.638L812.985 571.705Z" fill="#FFC3C3"/>
<path d="M823.824 538.47L816.323 559.826C816.323 559.826 816.213 561.281 817.78 561.487C819.346 561.693 827.465 561.377 827.465 561.377C827.465 561.377 828.605 561.062 829.031 559.4C829.443 557.738 834.869 539.61 834.869 539.61C834.869 539.61 834.759 538.676 833.825 538.47C832.891 538.264 823.824 538.47 823.824 538.47Z" fill="black"/>
<path d="M824.236 540.352L818.412 557.958L827.162 557.848L832.479 540.448L824.236 540.352Z" fill="white"/>
<path d="M834.553 547.534C834.553 547.534 829.443 549.416 828.303 550.446C827.162 551.489 827.368 552.423 828.193 552.629C829.031 552.835 836.009 551.998 836.009 551.998C836.009 551.998 836.847 551.476 836.943 549.91C837.04 548.345 835.597 547.644 834.553 547.534Z" fill="#FFC3C3"/>
<path d="M834.773 552.327C834.773 552.327 828.935 552.437 827.794 553.467C826.654 554.511 828.11 555.857 828.935 556.076C829.772 556.282 834.869 555.664 834.869 555.664C834.869 555.664 836.531 555.554 836.641 554.003C836.751 552.423 835.803 552.423 834.773 552.327Z" fill="#FFC3C3"/>
<path d="M833.825 556.076C833.825 556.076 829.278 556.159 828.371 556.969C827.478 557.779 828.619 558.837 829.264 559.002C829.91 559.166 833.894 558.672 833.894 558.672C833.894 558.672 835.199 558.59 835.281 557.367C835.377 556.159 834.636 556.159 833.825 556.076Z" fill="#FFC3C3"/>
<path d="M740.08 687.202C740.08 687.202 742.443 702.062 742.306 705.124C742.168 708.187 741.756 730.819 742.718 739.018C743.693 747.217 747.581 768.05 747.856 772.637C748.131 777.224 747.581 785.972 747.018 789.996C746.455 794.02 745.905 799.17 747.293 800.131C748.68 801.106 757.719 800.406 758.269 799.582C758.818 798.744 755.356 784.585 755.356 781.248C755.356 777.911 757.445 748.879 757.719 741.655C757.994 734.431 756.881 726.232 757.307 719.009C757.719 711.785 758.42 705.124 759.533 697.337C760.645 689.551 761.058 689.001 760.645 689.001C760.22 689.001 747.169 689.564 740.08 687.202Z" fill="#FFC3C3"/>
<path d="M771.058 688.864C771.058 688.864 775.372 703.861 775.784 709.56C776.196 715.259 776.059 724.694 778.422 732.069C780.785 739.43 790.236 756.789 792.173 761.376C794.124 765.963 795.648 769.849 794.673 771.937C793.698 774.024 792.874 774.436 792.036 776.661C791.198 778.886 792.585 781.935 792.585 781.935C792.585 781.935 801.762 783.184 803.973 786.247C806.199 789.31 811.062 794.583 813.288 795.132C815.513 795.682 819.538 795.407 820.651 794.858C821.764 794.309 821.626 792.496 819.126 791.521C816.626 790.545 814.263 789.859 812.601 787.359C810.938 784.86 804.125 773.475 802.874 768.613C801.624 763.752 792.585 710.274 792.736 705.825C792.874 701.375 793.437 701.801 792.873 695.401C792.31 689.001 792.173 686.227 792.173 686.227C792.173 686.227 775.921 689.152 771.058 688.864Z" fill="#FFC3C3"/>
<path d="M795.058 795.792L797.242 795.902C797.242 795.902 797.654 785.794 798.602 785.904C799.536 786.014 803.081 786.426 805.375 789.557C807.669 792.688 810.279 796.121 812.463 796.327C814.647 796.533 821.846 796.437 822.148 796.218C822.464 796.012 823.22 794.968 820.651 794.858C818.082 794.748 812.656 794.748 812.656 794.748C812.656 794.748 807.655 790.889 806.405 789.021C805.155 787.14 803.795 784.86 800.773 783.816C797.75 782.773 792.571 781.935 792.571 781.935C792.571 781.935 791.706 783.816 792.228 784.434C792.75 785.066 794.316 786 794.522 787.771C794.756 789.543 795.058 795.792 795.058 795.792Z" fill="url(#paint46_linear_15_235)"/>
<path d="M804.344 785.89C804.344 785.89 805.801 785.684 807.257 784.434C808.713 783.185 809.139 781.729 809.139 781.729C809.139 781.729 812.999 788.609 814.551 789.433C816.104 790.257 820.28 791.315 820.912 792.455C821.544 793.594 820.665 794.844 820.665 794.844C820.665 794.844 814.441 795.682 812.669 794.734C810.897 793.8 803.987 786.22 803.987 786.22" fill="url(#paint47_linear_15_235)"/>
<path d="M747.018 789.996C747.018 789.996 751.29 792.152 753.79 791.109C756.291 790.065 756.703 789.131 756.703 789.131C756.703 789.131 758.159 797.261 758.159 798.195C758.159 799.129 759.519 799.857 755.975 800.379C752.43 800.901 746.798 800.901 746.496 799.129C746.194 797.357 747.018 789.996 747.018 789.996Z" fill="url(#paint48_linear_15_235)"/>
<path d="M787.557 584.724C787.557 584.724 790.648 581.909 790.099 575.248C789.549 568.587 786.76 558.027 785.098 552.465C783.436 546.903 794.824 589.97 800.938 593.019C807.051 596.068 810.938 593.857 810.938 593.857C810.938 593.857 806.776 601.918 800.663 601.081C794.55 600.243 787.873 585.795 787.873 585.795" fill="url(#paint49_linear_15_235)"/>
<path d="M260.092 560.595C260.092 560.595 257.029 581.703 253.704 602.962C250.38 624.221 248.978 631.72 249.679 634.631C250.38 637.543 251.204 638.655 251.204 638.243C251.204 637.831 270.519 568.093 270.519 567.681C270.519 567.269 264.131 560.732 264.131 560.732L260.092 560.595Z" fill="#FFC3C3"/>
<path d="M283.308 535.174C283.308 535.174 282.333 539.624 284.559 541.986C286.784 544.348 294.559 544.348 297.486 542.123C300.398 539.899 305.261 534.199 305.261 534.199C305.261 534.199 317.762 534.474 320.4 539.061C323.037 543.648 326.65 556.008 323.875 569.343C321.1 582.678 314.424 603.511 311.086 613.798C307.747 624.084 305.81 630.607 305.247 634.768C304.698 638.93 304.835 644.08 304.835 644.08C304.835 644.08 293.158 647.142 272.593 640.468C252.028 633.793 250.229 632.695 250.229 632.695C250.229 632.695 254.68 618.247 257.454 601.726C260.229 585.205 263.293 560.883 263.293 560.883L258.567 560.045C258.567 560.045 266.631 541.437 274.407 537.825C282.196 534.199 283.308 535.174 283.308 535.174Z" fill="url(#paint50_linear_15_235)"/>
<path d="M304.698 534.337C304.698 534.337 304.56 530.862 304.835 526.275C305.11 521.688 305.247 520.576 305.247 520.576C305.247 520.576 310.66 513.764 310.522 510.578C310.385 507.378 307.459 507.378 305.934 509.054C304.409 510.715 302.459 512.253 302.459 512.253L300.233 511.979L292.307 506.142C292.307 506.142 292.307 498.781 290.644 498.506C288.982 498.232 283.693 499.893 281.894 499.207C280.08 498.506 278.83 497.545 278.83 498.094C278.83 498.644 276.33 506.156 276.467 508.655C276.605 511.155 278.555 512.967 278.267 514.355C277.992 515.742 277.017 520.466 277.429 521.716C277.841 522.965 281.042 524.49 281.042 524.49C281.042 524.49 281.179 532.263 282.017 533.664C282.855 535.051 283.267 535.188 283.267 535.188C283.267 535.188 282.017 540.599 285.493 542.824C287.663 544.211 292.361 545.227 296.881 542.824C299.629 541.368 301.785 538.457 304.698 534.337Z" fill="#FFC3C3"/>
<path d="M310.536 510.592C310.399 507.392 307.473 507.392 305.948 509.067C304.423 510.729 302.472 512.267 302.472 512.267L300.247 511.992L292.32 506.156C292.32 506.156 292.32 498.795 290.658 498.52C288.996 498.245 283.707 499.907 281.907 499.22C280.094 498.52 278.844 497.559 278.844 498.108C278.844 498.108 277.731 497.696 276.756 495.883C275.78 494.084 275.231 491.859 277.168 489.635C279.119 487.41 293.007 483.935 297.87 484.773C302.733 485.611 309.121 488.247 310.935 494.359C312.748 500.47 310.797 512.144 310.797 512.144L310.22 512.322C310.44 511.663 310.564 511.086 310.536 510.592Z" fill="black"/>
<path d="M252.111 633.656C252.111 633.656 248.978 650.946 243.772 670.75C238.565 690.539 236.271 701.169 237.934 706.8C239.596 712.43 257.111 734.926 259.199 738.263C261.287 741.6 288.79 768.064 288.79 768.064C288.79 768.064 294.422 758.478 296.716 749.318C299.01 740.144 299.01 740.144 299.01 740.144C299.01 740.144 264.2 708.681 264.2 707.843C264.2 707.006 265.038 692.627 265.038 692.627C265.038 692.627 267.95 652.004 267.538 651.372C267.126 650.74 256.287 635.125 256.287 635.125L252.111 633.656Z" fill="url(#paint51_linear_15_235)"/>
<path d="M298.997 740.131C298.997 740.131 302.747 741.037 302.747 742.149C302.747 743.262 300.247 755.484 300.384 759.096C300.522 762.708 301.36 771.319 299.271 777.293C297.183 783.267 293.296 786.604 291.07 785.766C288.845 784.929 287.869 783.816 288.57 781.454C289.271 779.092 292.046 772.431 291.345 770.481C290.644 768.531 289.394 767.144 289.394 767.144C289.394 767.144 297.472 751.172 298.997 740.131Z" fill="black"/>
<path d="M303.31 644.492C303.31 644.492 299.423 657.277 296.922 664.776C294.422 672.274 292.128 680.542 288.172 710.549C284.215 740.556 276.714 784.723 276.714 784.723C276.714 784.723 270.67 785.56 263.581 783.885C256.493 782.209 253.155 779.298 253.155 779.298C253.155 779.298 263.581 721.165 264.832 694.495C266.082 667.825 265.67 658.239 263.581 654.901C261.493 651.564 257.743 645.947 256.699 641.566C255.655 637.186 256.287 635.112 256.287 635.112C256.287 635.112 284.27 646.785 303.31 644.492Z" fill="url(#paint52_linear_15_235)"/>
<path d="M275.107 785.066C275.107 785.066 275.945 788.403 274.97 789.09C273.994 789.79 270.244 791.589 268.156 792.976C266.068 794.363 262.455 797.975 255.366 799.088C248.278 800.2 247.866 800.337 245.64 799.5C243.415 798.662 241.327 797.138 241.327 797.138C241.327 797.138 241.464 794.638 243.827 792.139C246.19 789.639 252.715 785.19 253.553 783.253C254.391 781.303 254.941 780.342 254.941 780.342C254.941 780.342 261.768 785.615 275.107 785.066Z" fill="black"/>
<path d="M297.334 562.394C297.334 562.394 286.702 586.564 285.039 586.77C283.377 586.976 252.523 583.859 249.185 579.066C245.846 574.273 243.978 563.232 242.522 562.394C241.066 561.556 240.022 561.762 240.022 561.762C240.022 561.762 240.09 572.254 239.678 572.666C239.266 573.078 234.815 573.504 232.727 572.254C230.639 571.005 227.163 568.917 225.501 568.642C223.839 568.368 221.188 569.48 222.3 570.867C223.413 572.254 226.188 574.754 226.188 574.754C226.188 574.754 226.325 581.14 231.601 584.614C236.876 588.089 246.327 591.838 246.327 591.838C246.327 591.838 276.618 605.036 283.281 605.585C289.944 606.134 292.169 604.747 296.071 601.973C299.958 599.199 309.684 586.688 314.135 579.89C318.586 573.078 318.724 570.304 318.724 570.304C318.724 570.304 305.261 568.793 297.334 562.394Z" fill="#FFC3C3"/>
<path d="M239.678 572.68C239.266 573.092 234.815 573.518 232.727 572.268C230.639 571.018 227.163 568.931 225.501 568.656C225.501 568.656 221.751 556.571 221.751 555.321C221.751 554.071 236.752 553.934 237.453 554.346C238.153 554.758 240.022 561.776 240.022 561.776C240.022 561.776 240.09 572.268 239.678 572.68Z" fill="black"/>
<path d="M303.31 543.922L296.084 562.819C296.084 562.819 303.31 566.431 310.536 568.656C317.762 570.881 319.988 570.606 319.988 570.606C319.988 570.606 323.326 563.657 323.601 550.047" fill="url(#paint53_linear_15_235)"/>
<path d="M264.131 560.732C264.131 560.732 268.019 547.809 269.969 544.197C271.92 540.585 272.744 538.923 272.744 538.923C272.744 538.923 266.906 544.197 262.743 551.709C258.581 559.208 258.581 560.045 258.581 560.045C258.581 560.045 262.18 561.432 264.131 560.732Z" fill="url(#paint54_linear_15_235)"/>
<path d="M400.283 392.979C400.283 392.979 368.151 377.598 363.137 377.461C358.123 377.323 352.848 381.21 351.694 384.822C350.54 388.434 352.985 396.056 357.738 401.673C362.491 407.29 366.228 408.896 375.35 414.774C384.471 420.652 393.469 429.483 406.589 431.089C419.708 432.696 426.123 430.416 438.089 430.828C450.04 431.227 464.959 426.818 470.606 422.671C476.265 418.523 484.618 413.181 489.756 410.105C494.893 407.029 499.784 400.739 502.477 396.605C505.183 392.457 506.845 384.973 505.43 382.432C504.015 379.891 499.77 375.881 494.632 377.351C489.495 378.82 456.195 392.732 456.195 392.732L400.283 392.979Z" fill="url(#paint55_linear_15_235)"/>
<path d="M417.634 314.081C417.634 314.081 398.223 318.627 395.132 321.442C392.041 324.244 386.642 329.737 385.364 337.483C384.073 345.242 384.719 354.196 384.719 354.196C384.719 354.196 386.518 356.737 394.61 357.946C402.715 359.154 401.685 358.879 401.685 358.879L400.27 392.979C400.27 392.979 401.685 398.596 415.82 400.34C429.956 402.085 443.076 400.876 448.983 398.734C454.89 396.591 456.689 393.117 456.689 393.117C456.689 393.117 457.72 373.464 458.104 367.847C458.489 362.23 458.75 359.429 458.228 359.291C457.72 359.154 464.396 358.495 470.702 354.608C477.007 350.736 478.408 349.527 478.408 349.527C478.408 349.527 478.147 327.334 470.949 322.253C463.751 317.171 447.746 313.024 441.537 312.488C435.369 311.939 417.634 314.081 417.634 314.081Z" fill="url(#paint56_linear_15_235)"/>
<path d="M417.854 311.966L417.277 319.794C417.277 319.794 421.906 325.617 428.747 325.617C435.589 325.617 442.251 318.998 442.251 318.998L441.578 312.475" fill="url(#paint57_linear_15_235)"/>
<path d="M412.455 290.515C412.455 290.515 410.147 289.416 409.954 291.723C409.762 294.031 411.108 300.252 412.262 300.746C413.416 301.254 414.186 301.447 414.186 301.447C414.186 301.447 415.34 307.97 416.013 309.673C416.686 311.376 424.008 317.803 426.041 318.394C428.06 318.998 432.978 319.19 435.589 317.885C438.199 316.581 442.622 311.266 443.982 308.258C445.329 305.251 445.425 301.337 445.425 301.337C445.425 301.337 447.348 301.131 447.925 298.933C448.502 296.722 449.463 290.515 448.213 289.801C446.963 289.1 447.636 282.481 444.834 281.176C442.032 279.872 418.513 272.854 416.782 274.763C415.051 276.672 413.787 280.984 413.595 282.289C413.416 283.593 412.455 290.515 412.455 290.515Z" fill="#FFC3C3"/>
<path d="M415.312 298.425C415.312 298.425 415.051 290.268 415.188 289.869C415.312 289.471 416.727 282.92 416.727 282.92C416.727 282.92 420.326 285.324 431.124 285.598C441.922 285.859 443.721 285.337 443.721 285.337V298.714L445.013 298.453C445.013 298.453 445.274 291.229 446.551 290.831C447.842 290.433 448.351 290.433 448.351 290.433C448.351 290.433 448.474 273.98 447.843 271.316C447.197 268.638 442.059 264.765 438.075 263.955C434.091 263.158 418.925 264.092 414.172 267.965C409.419 271.838 410.064 273.321 409.927 277.867C409.803 282.412 410.435 290.433 410.435 290.433C410.435 290.433 412.62 290.034 412.881 290.968C413.142 291.902 413.774 298.055 413.774 298.055L415.312 298.425Z" fill="black"/>
<path d="M384.98 354.595C384.705 354.471 385.749 362.725 388.84 374.549C391.931 386.387 393.085 389.697 394.046 390.7C395.008 391.702 400.022 392.21 403.498 390.796C406.973 389.395 414.488 383.174 417.867 378.257C421.247 373.341 424.612 369.028 424.612 369.028L424.805 353.784L434.641 353.084C434.641 353.084 432.718 350.983 430.973 350.571C429.242 350.173 421.81 354.183 421.81 354.183L416.411 366.213L404.556 370.924L403.498 358.687C403.498 358.715 395.104 359.113 384.98 354.595Z" fill="#FFC3C3"/>
<path d="M441.084 381.677C441.084 382.116 440.74 382.473 440.314 382.473H425.464C425.038 382.473 424.695 382.116 424.695 381.677V354.293C424.695 353.853 425.038 353.496 425.464 353.496H440.314C440.74 353.496 441.084 353.853 441.084 354.293V381.677Z" fill="black"/>
<path d="M427.593 355.295H425.862V356.902H427.593V355.295Z" fill="white"/>
<path d="M409.762 399.53C409.762 399.53 412.853 403.842 421.137 405.051C429.434 406.259 440.809 404.845 443.021 403.444C445.232 402.043 445.631 399.626 445.631 399.626C445.631 399.626 429.613 403.842 409.762 399.53Z" fill="url(#paint58_linear_15_235)"/>
<path d="M434.915 400.835H424.214V406.754H434.915V400.835Z" fill="black"/>
<path d="M419.942 418.51C419.433 418.51 395.777 420.515 392.563 422.121C389.348 423.728 386.903 427.065 389.857 430.952C392.81 434.825 398.731 436.569 405.929 435.36C413.128 434.152 428.94 428.411 428.94 428.411L428.17 426.406L419.942 418.51Z" fill="black"/>
<path d="M405.297 402.469C393.854 396.454 362.368 377.996 362.368 377.996C362.368 377.996 362.203 377.804 361.901 377.516C357.285 377.969 352.752 381.498 351.694 384.822C350.54 388.434 352.985 396.056 357.738 401.673C361.708 406.356 364.978 408.265 371.242 412.179C372.19 412.632 373.056 413.016 373.797 413.305C381.641 416.381 410.051 430.155 410.051 430.155C410.051 430.155 412.62 428.823 416.219 423.605C419.818 418.386 418.403 410.366 418.403 410.366C418.403 410.366 416.727 408.484 405.297 402.469Z" fill="url(#paint59_linear_15_235)"/>
<path d="M418.788 411.561L434.6 419.183C434.6 419.183 432.676 419.183 432.031 421.861C431.385 424.539 432.154 426.269 432.154 426.269H428.94L416.851 422.259C416.864 422.259 419.818 415.845 418.788 411.561Z" fill="#FFC3C3"/>
<path d="M428.17 426.406C428.17 426.406 429.846 430.279 431.77 430.952C433.693 431.625 449.642 435.36 456.841 435.237C464.039 435.099 468.023 433.63 468.792 428.549C469.562 423.467 465.454 422.259 460.687 421.6C455.934 420.927 434.6 419.196 434.6 419.196C434.6 419.196 432.292 419.993 432.031 421.874C431.77 423.742 431.646 426.159 431.646 426.159L428.17 426.406Z" fill="black"/>
<path d="M428.17 416.106C428.555 415.845 438.46 410.489 438.46 410.489L439.751 419.581L434.613 419.183L428.17 416.106Z" fill="#FFC3C3"/>
<path d="M495.992 377.076C483.821 382.844 438.941 410.242 438.446 410.489L439.737 419.581C439.737 419.581 450.15 421.188 457.349 421.449C463.476 421.682 466.896 423.742 467.776 424.346C468.861 423.783 469.809 423.206 470.578 422.643C476.238 418.496 484.59 413.154 489.728 410.077C494.866 407.001 499.757 400.711 502.449 396.577C505.155 392.43 506.818 384.945 505.403 382.405C504.139 380.097 500.512 376.582 495.992 377.076Z" fill="url(#paint60_linear_15_235)"/>
<path d="M422.964 361.42C422.483 362.121 421.81 363.123 422.964 364.524C424.118 365.925 424.022 366.433 424.022 366.433C424.022 366.433 422.579 367.834 422.579 369.234C422.579 370.635 423.252 371.844 423.252 371.844C423.252 371.844 422.675 373.849 422.964 374.453C423.252 375.057 423.252 375.057 423.252 375.057C423.252 375.057 421.618 377.461 424.983 379.37C428.363 381.279 439.449 385.289 439.449 385.289C439.449 385.289 449.477 390.507 459.41 391.812C469.342 393.117 474.164 389.903 475.318 387.802C476.471 385.701 478.216 372.558 478.505 365.842C478.793 359.127 478.12 349.692 478.12 349.692C478.12 349.692 475.043 353.4 467.418 356.215C459.808 359.017 459.327 358.728 459.327 359.017C459.327 359.319 459.616 369.949 460 372.05C460.385 374.151 461.154 375.964 461.154 375.964C461.154 375.964 452.953 376.06 449.78 376.266C446.592 376.472 444.381 376.17 444.381 376.17C444.381 376.17 446.4 371.555 445.342 368.85C444.285 366.144 443.323 363.741 443.515 362.327C443.708 360.926 443.515 360.321 443.034 360.321C442.554 360.321 440.919 360.83 440.727 362.23C440.534 363.631 440.534 369.152 440.534 369.152C440.534 369.152 423.445 360.72 422.964 361.42Z" fill="#FFC3C3"/>
<path d="M448.722 773.626C448.722 773.626 447.059 775.013 442.609 775.576C438.158 776.126 438.158 776.126 438.158 776.126C438.158 776.126 439.133 767.789 437.045 765.839C434.957 763.889 424.956 759.028 422.318 746.256C419.681 733.484 424.406 719.036 434.545 714.312C444.683 709.588 453.296 709.176 459.973 714.724C466.635 720.286 470.537 729.721 471.086 736.807C471.636 743.893 471.498 748.329 471.498 748.329L448.722 773.626Z" fill="black"/>
<path d="M455.398 764.603C455.398 764.603 448.035 758.355 445.672 758.767C443.309 759.179 439.009 762.104 437.471 760.291C435.946 758.492 435.108 754.729 434.558 754.454C434.009 754.18 432.896 753.479 433.033 752.655C433.171 751.818 434.146 750.843 434.146 750.843C434.146 750.843 432.484 751.818 432.195 750.705C431.921 749.593 431.921 748.343 431.921 748.343C431.921 748.343 428.583 748.755 429.008 746.681C429.421 744.594 430.959 740.021 430.396 738.345C429.846 736.683 427.195 731.822 430.396 727.784C433.597 723.76 440.397 719.036 446.098 726.535C451.799 734.033 453.049 738.208 456.387 740.57C459.725 742.932 461.525 744.594 460.55 746.407C459.574 748.206 458.049 750.719 458.049 752.243C458.049 753.768 458.187 756.83 458.187 756.83L457.775 767.941L455.398 764.603Z" fill="#FFC3C3"/>
<path d="M400.228 786.824C400.228 786.824 398.566 790.848 402.729 793.485C406.891 796.121 445.796 800.983 447.609 800.008C449.409 799.033 458.31 783.198 458.31 783.198L457.898 764.864L455.398 764.59C455.398 764.59 450.81 768.613 447.76 774.876C444.71 781.124 439.284 790.985 439.284 790.985C439.284 790.985 424.132 790.01 422.332 787.785C420.532 785.56 418.018 781.262 415.944 781.262C413.856 781.262 410.106 781.125 410.106 781.125L400.228 786.824Z" fill="#FFC3C3"/>
<path d="M465.262 747.382C465.262 747.382 459.286 751.694 458.599 756.13C457.898 760.579 458.049 781.688 458.324 783.212C458.599 784.736 466.8 809.47 472.639 809.745C478.477 810.019 482.914 804.746 491.116 805.432C499.317 806.133 518.494 807.245 525.432 807.52C532.383 807.795 534.457 808.22 534.457 808.22L534.595 777.526C534.595 777.526 523.756 779.889 516.118 776.977C508.48 774.066 500.979 767.117 496.94 762.804C492.915 758.492 483.464 748.769 465.262 747.382Z" fill="url(#paint61_linear_15_235)"/>
<path d="M461.717 751.749C461.717 751.749 460.261 755.086 460.261 763.202C460.261 771.319 459.849 800.077 459.849 800.077C459.849 800.077 447.76 800.846 440.397 799.871C433.033 798.895 424.695 795.984 424.695 795.984C424.695 795.984 422.469 792.097 419.282 789.735C416.081 787.373 410.944 781.262 410.394 781.674C409.845 782.086 409.845 783.061 410.531 785.835C411.218 788.609 412.056 790.971 412.056 790.971C412.056 790.971 407.056 791.246 406.218 789.859C405.38 788.472 401.904 779.298 401.904 779.298C401.904 779.298 400.929 780.96 400.517 783.322C400.105 785.684 401.492 793.457 405.105 796.245C408.718 799.019 416.356 800.969 422.744 803.057C429.132 805.144 450.535 808.756 459.148 809.305C467.762 809.855 470.537 810.006 471.375 809.168C472.213 808.33 478.463 783.047 478.738 772.363C479.013 761.664 477.351 751.941 471.787 750.005C466.237 748.068 462.761 750.156 461.717 751.749Z" fill="#FFC3C3"/>
<path d="M403.017 782.388C403.017 782.388 395.928 771.827 395.928 771.003C395.928 770.179 403.567 771.552 403.567 771.552L410.38 781.688C410.38 781.688 409.968 783.638 410.243 784.75C410.518 785.863 410.944 787.662 410.944 787.662L405.38 787.524L403.017 782.388Z" fill="url(#paint62_linear_15_235)"/>
<path d="M534.595 777.526C534.595 777.526 549.253 769.685 558.004 770.097C566.754 770.509 575.725 779.051 582.594 780.932C589.476 782.814 604.271 785.931 604.271 785.931L603.227 810.102C603.227 810.102 562.798 810.734 549.871 810.102C536.944 809.47 534.444 808.22 534.444 808.22C534.444 808.22 533.688 782.869 534.595 777.526Z" fill="url(#paint63_linear_15_235)"/>
<path d="M604.203 786.687C604.203 786.687 610.316 788.211 616.992 790.024C623.655 791.837 625.056 791.548 625.056 791.548C625.056 791.548 623.106 775.714 624.081 768.765C625.056 761.816 628.669 747.656 629.219 743.207C629.768 738.757 629.768 736.958 629.219 735.846C628.669 734.733 627.694 734.033 627.694 734.033C627.694 734.033 625.468 734.033 622.693 731.808C619.918 729.583 616.855 725.285 616.855 725.285C616.855 725.285 632.832 706.113 641.033 698.477C649.234 690.842 652.559 689.866 653.534 691.116C654.509 692.366 653.809 696.253 651.583 700.29C649.358 704.314 643.107 719.187 642.558 724.461C642.008 729.734 642.695 757.654 643.945 777.252C645.195 796.836 646.171 805.172 645.333 806.971C644.495 808.783 640.882 809.607 640.882 809.607L603.227 810.088L604.203 786.687Z" fill="#FFC3C3"/>
<path d="M641.033 698.477C632.832 706.113 616.855 725.285 616.855 725.285C616.855 725.285 619.905 729.597 622.693 731.808C625.468 734.033 627.694 734.033 627.694 734.033C627.694 734.033 628.807 723.747 634.645 716.111C640.071 709.011 644.069 703.943 649.399 704.836C650.278 702.872 651.061 701.251 651.597 700.263C653.823 696.239 654.509 692.339 653.548 691.089C652.559 689.867 649.221 690.842 641.033 698.477Z" fill="url(#paint64_linear_15_235)"/>
<path d="M616.992 790.024C623.655 791.837 625.056 791.548 625.056 791.548C625.056 791.548 623.861 781.756 623.82 774.189C619.616 769.465 604.436 752.394 597.416 745.02C589.215 736.409 584.215 715.987 583.94 715.575C583.665 715.163 583.528 712.938 583.239 711.689C582.951 710.439 579.489 703.215 577.676 702.24C575.862 701.265 573.513 707.94 573.788 718.624C574.063 729.322 574.763 752.655 574.763 752.655C574.763 752.655 580.602 753.768 583.102 753.63C585.602 753.493 587.828 751.543 587.828 751.543C587.828 751.543 589.215 751.543 590.19 752.518C591.166 753.493 594.916 760.854 598.941 768.765C602.156 775.082 607.129 784.393 609.025 787.909C611.25 788.486 614.066 789.227 616.992 790.024Z" fill="#FFC3C3"/>
<path d="M579.75 722.648C580.162 718.198 583.638 714.724 583.638 714.724C583.651 714.724 583.665 714.71 583.693 714.71C583.542 713.831 583.418 712.527 583.226 711.675C582.951 710.425 579.475 703.202 577.662 702.227C575.848 701.251 573.499 707.926 573.774 718.61C574.049 729.309 574.749 752.642 574.749 752.642C574.749 752.642 580.588 753.754 583.088 753.617C585.588 753.479 587.814 751.529 587.814 751.529C581.275 742.232 579.338 727.098 579.75 722.648Z" fill="url(#paint65_linear_15_235)"/>
<path d="M424.393 722.579L403.566 771.552L409.584 780.781L455.398 764.603" fill="url(#paint66_linear_15_235)"/>
<path d="M314.657 434.742L221.751 555.321L237.453 554.346L240.022 561.776L314.63 535.38" fill="url(#paint67_linear_15_235)"/>
<path d="M321.032 115.745L424.791 353.798L440.314 353.496L562.509 126.978" fill="url(#paint68_linear_15_235)"/>
<path d="M499.07 279.624L585.698 355.941L593.694 327.018L640.896 324.629L623.573 109.688" fill="url(#paint69_linear_15_235)"/>
<path d="M760.261 553.673L818.412 557.958L827.162 557.848L832.479 540.448L824.236 540.352L779.438 496.378" fill="url(#paint70_linear_15_235)"/>
<defs>
<linearGradient id="paint0_linear_15_235" x1="564.86" y1="-2.37435" x2="564.86" y2="781.152" gradientUnits="userSpaceOnUse">
<stop stop-color="#B9B6FF"/>
<stop offset="1" stop-color="white"/>
</linearGradient>
<linearGradient id="paint1_linear_15_235" x1="725.252" y1="70.5942" x2="703.542" y2="178.577" gradientUnits="userSpaceOnUse">
<stop stop-color="#4D4D4D"/>
<stop offset="0.2928" stop-color="#898989"/>
<stop offset="0.6276" stop-color="#C8C8C8"/>
<stop offset="0.8728" stop-color="#F0F0F0"/>
<stop offset="1" stop-color="white"/>
</linearGradient>
<linearGradient id="paint2_linear_15_235" x1="725.476" y1="73.4041" x2="703.766" y2="181.387" gradientUnits="userSpaceOnUse">
<stop offset="0.00834131" stop-color="white"/>
<stop offset="0.447917" stop-color="#F0DFA7"/>
<stop offset="1" stop-color="#FFE1A0"/>
</linearGradient>
<linearGradient id="paint3_linear_15_235" x1="778.908" y1="589.624" x2="778.361" y2="590.555" gradientUnits="userSpaceOnUse">
<stop offset="0.0743" stop-color="#CEC228"/>
<stop offset="0.58" stop-color="#B2AE18"/>
</linearGradient>
<linearGradient id="paint4_linear_15_235" x1="694.738" y1="521.017" x2="715.333" y2="516.428" gradientUnits="userSpaceOnUse">
<stop stop-color="#7700BB"/>
<stop offset="1"/>
</linearGradient>
<linearGradient id="paint5_linear_15_235" x1="592.325" y1="580.456" x2="721.159" y2="551.753" gradientUnits="userSpaceOnUse">
<stop stop-color="#7700BB"/>
<stop offset="1"/>
</linearGradient>
<linearGradient id="paint6_linear_15_235" x1="749.057" y1="632.912" x2="856.363" y2="609.005" gradientUnits="userSpaceOnUse">
<stop stop-color="#7700BB"/>
<stop offset="1"/>
</linearGradient>
<linearGradient id="paint7_linear_15_235" x1="658.822" y1="740.391" x2="787.225" y2="536.655" gradientUnits="userSpaceOnUse">
<stop stop-color="#59023F"/>
<stop offset="0.1189" stop-color="#590444"/>
<stop offset="0.2652" stop-color="#5A0A53"/>
<stop offset="0.4258" stop-color="#5C156C"/>
<stop offset="0.5969" stop-color="#5E238F"/>
<stop offset="0.7761" stop-color="#6135BC"/>
<stop offset="0.9595" stop-color="#644CF2"/>
<stop offset="1" stop-color="#6551FF"/>
</linearGradient>
<linearGradient id="paint8_linear_15_235" x1="743.965" y1="689.372" x2="743.762" y2="690.432" gradientUnits="userSpaceOnUse">
<stop offset="0.0743" stop-color="#CEC228"/>
<stop offset="0.58" stop-color="#B2AE18"/>
</linearGradient>
<linearGradient id="paint9_linear_15_235" x1="641.662" y1="652.938" x2="659.522" y2="641.712" gradientUnits="userSpaceOnUse">
<stop stop-color="#7700BB"/>
<stop offset="1"/>
</linearGradient>
<linearGradient id="paint10_linear_15_235" x1="565.104" y1="743.257" x2="676.847" y2="673.025" gradientUnits="userSpaceOnUse">
<stop stop-color="#7700BB"/>
<stop offset="1"/>
</linearGradient>
<linearGradient id="paint11_linear_15_235" x1="427.27" y1="595.94" x2="129.433" y2="436.454" gradientUnits="userSpaceOnUse">
<stop stop-color="#7633FF"/>
<stop offset="0.1585" stop-color="#7137FF"/>
<stop offset="0.3535" stop-color="#6243FF"/>
<stop offset="0.5676" stop-color="#4957FF"/>
<stop offset="0.7937" stop-color="#2672FF"/>
<stop offset="1" stop-color="#0090FF"/>
</linearGradient>
<linearGradient id="paint12_linear_15_235" x1="368.051" y1="616.054" x2="369.034" y2="616.499" gradientUnits="userSpaceOnUse">
<stop offset="0.0743" stop-color="#CEC228"/>
<stop offset="0.58" stop-color="#B2AE18"/>
</linearGradient>
<linearGradient id="paint13_linear_15_235" x1="495.768" y1="741.79" x2="361.463" y2="512.959" gradientUnits="userSpaceOnUse">
<stop stop-color="#59023F"/>
<stop offset="0.1189" stop-color="#590444"/>
<stop offset="0.2652" stop-color="#5A0A53"/>
<stop offset="0.4258" stop-color="#5C156C"/>
<stop offset="0.5969" stop-color="#5E238F"/>
<stop offset="0.7761" stop-color="#6135BC"/>
<stop offset="0.9595" stop-color="#644CF2"/>
<stop offset="1" stop-color="#6551FF"/>
</linearGradient>
<linearGradient id="paint14_linear_15_235" x1="418.739" y1="690.99" x2="419.037" y2="692.027" gradientUnits="userSpaceOnUse">
<stop offset="0.0743" stop-color="#CEC228"/>
<stop offset="0.58" stop-color="#B2AE18"/>
</linearGradient>
<linearGradient id="paint15_linear_15_235" x1="517.365" y1="645.534" x2="498.563" y2="635.953" gradientUnits="userSpaceOnUse">
<stop stop-color="#7700BB"/>
<stop offset="1"/>
</linearGradient>
<linearGradient id="paint16_linear_15_235" x1="601.716" y1="728.627" x2="484.115" y2="668.7" gradientUnits="userSpaceOnUse">
<stop stop-color="#7700BB"/>
<stop offset="1"/>
</linearGradient>
<linearGradient id="paint17_linear_15_235" x1="462.494" y1="693.762" x2="327.086" y2="624.761" gradientUnits="userSpaceOnUse">
<stop stop-color="#7700BB"/>
<stop offset="1"/>
</linearGradient>
<linearGradient id="paint18_linear_15_235" x1="325.265" y1="354.427" x2="336.868" y2="359.719" gradientUnits="userSpaceOnUse">
<stop stop-color="#7633FF"/>
</linearGradient>
<linearGradient id="paint19_linear_15_235" x1="309.816" y1="357.908" x2="320.087" y2="362.592" gradientUnits="userSpaceOnUse">
<stop stop-color="#7633FF"/>
</linearGradient>
<linearGradient id="paint20_linear_15_235" x1="301.14" y1="373.643" x2="310.291" y2="377.817" gradientUnits="userSpaceOnUse">
<stop stop-color="#7633FF"/>
</linearGradient>
<linearGradient id="paint21_linear_15_235" x1="281.184" y1="364.803" x2="294.177" y2="370.729" gradientUnits="userSpaceOnUse">
<stop stop-color="#7633FF"/>
</linearGradient>
<linearGradient id="paint22_linear_15_235" x1="261.345" y1="395.49" x2="276.529" y2="402.417" gradientUnits="userSpaceOnUse">
<stop stop-color="#7633FF"/>
</linearGradient>
<linearGradient id="paint23_linear_15_235" x1="269.682" y1="377.109" x2="281.941" y2="382.701" gradientUnits="userSpaceOnUse">
<stop stop-color="#7633FF"/>
</linearGradient>
<linearGradient id="paint24_linear_15_235" x1="664.351" y1="310.03" x2="652.748" y2="315.322" gradientUnits="userSpaceOnUse">
<stop stop-color="#7633FF"/>
</linearGradient>
<linearGradient id="paint25_linear_15_235" x1="679.8" y1="313.51" x2="669.529" y2="318.195" gradientUnits="userSpaceOnUse">
<stop stop-color="#7633FF"/>
</linearGradient>
<linearGradient id="paint26_linear_15_235" x1="688.476" y1="329.246" x2="679.325" y2="333.42" gradientUnits="userSpaceOnUse">
<stop stop-color="#7633FF"/>
</linearGradient>
<linearGradient id="paint27_linear_15_235" x1="708.432" y1="320.405" x2="695.438" y2="326.332" gradientUnits="userSpaceOnUse">
<stop stop-color="#7633FF"/>
</linearGradient>
<linearGradient id="paint28_linear_15_235" x1="728.271" y1="351.093" x2="713.086" y2="358.019" gradientUnits="userSpaceOnUse">
<stop stop-color="#7633FF"/>
</linearGradient>
<linearGradient id="paint29_linear_15_235" x1="719.934" y1="332.712" x2="707.675" y2="338.303" gradientUnits="userSpaceOnUse">
<stop stop-color="#7633FF"/>
</linearGradient>
<linearGradient id="paint30_linear_15_235" x1="572.179" y1="844.743" x2="572.179" y2="751.856" gradientUnits="userSpaceOnUse">
<stop stop-color="#826DFD"/>
</linearGradient>
<linearGradient id="paint31_linear_15_235" x1="528.502" y1="755.268" x2="531.835" y2="778.605" gradientUnits="userSpaceOnUse">
<stop stop-color="#270036"/>
<stop offset="0.5936" stop-color="#4F008B"/>
<stop offset="1" stop-color="#4C24B1"/>
</linearGradient>
<linearGradient id="paint32_linear_15_235" x1="531.076" y1="727.82" x2="531.076" y2="412.766" gradientUnits="userSpaceOnUse">
<stop stop-color="#270036"/>
<stop offset="0.5936" stop-color="#4F008B"/>
<stop offset="1" stop-color="#4C24B1"/>
</linearGradient>
<linearGradient id="paint33_linear_15_235" x1="441.612" y1="537.834" x2="762.355" y2="257.141" gradientUnits="userSpaceOnUse">
<stop offset="0.2744" stop-color="#EAF0FF"/>
<stop offset="1" stop-color="#FDFEFF"/>
</linearGradient>
<linearGradient id="paint34_linear_15_235" x1="459.879" y1="497.656" x2="645.729" y2="335.012" gradientUnits="userSpaceOnUse">
<stop stop-color="#7633FF"/>
<stop offset="0.2164" stop-color="#4E53FF"/>
<stop offset="0.4362" stop-color="#2C6DFF"/>
<stop offset="0.6459" stop-color="#1480FF"/>
<stop offset="0.8391" stop-color="#058CFF"/>
<stop offset="1" stop-color="#0090FF"/>
</linearGradient>
<linearGradient id="paint35_linear_15_235" x1="424.952" y1="496.902" x2="536.188" y2="399.556" gradientUnits="userSpaceOnUse">
<stop stop-color="#7633FF"/>
<stop offset="0.2164" stop-color="#4E53FF"/>
<stop offset="0.4362" stop-color="#2C6DFF"/>
<stop offset="0.6459" stop-color="#1480FF"/>
<stop offset="0.8391" stop-color="#058CFF"/>
<stop offset="1" stop-color="#0090FF"/>
</linearGradient>
<linearGradient id="paint36_linear_15_235" x1="333.866" y1="466.275" x2="365.402" y2="438.677" gradientUnits="userSpaceOnUse">
<stop stop-color="#7633FF"/>
<stop offset="0.2164" stop-color="#4E53FF"/>
<stop offset="0.4362" stop-color="#2C6DFF"/>
<stop offset="0.6459" stop-color="#1480FF"/>
<stop offset="0.8391" stop-color="#058CFF"/>
<stop offset="1" stop-color="#0090FF"/>
</linearGradient>
<linearGradient id="paint37_linear_15_235" x1="511.018" y1="750.519" x2="553.177" y2="750.519" gradientUnits="userSpaceOnUse">
<stop stop-color="#270036"/>
<stop offset="0.5936" stop-color="#4F008B"/>
<stop offset="1" stop-color="#4C24B1"/>
</linearGradient>
<linearGradient id="paint38_linear_15_235" x1="529.285" y1="341.449" x2="588.391" y2="341.449" gradientUnits="userSpaceOnUse">
<stop stop-color="#7633FF"/>
<stop offset="0.1585" stop-color="#7137FF"/>
<stop offset="0.3535" stop-color="#6243FF"/>
<stop offset="0.5676" stop-color="#4957FF"/>
<stop offset="0.7937" stop-color="#2672FF"/>
<stop offset="1" stop-color="#0090FF"/>
</linearGradient>
<linearGradient id="paint39_linear_15_235" x1="584.1" y1="348.077" x2="642.46" y2="348.077" gradientUnits="userSpaceOnUse">
<stop stop-color="#A1BAFF"/>
<stop offset="0.0151" stop-color="#A7BFFF"/>
<stop offset="0.0899" stop-color="#C3D3FF"/>
<stop offset="0.1753" stop-color="#D9E3FF"/>
<stop offset="0.2744" stop-color="#EAF0FF"/>
<stop offset="0.3958" stop-color="#F6F8FF"/>
<stop offset="0.5634" stop-color="#FDFEFF"/>
<stop offset="1" stop-color="white"/>
</linearGradient>
<linearGradient id="paint40_linear_15_235" x1="538.042" y1="306.713" x2="575.921" y2="306.713" gradientUnits="userSpaceOnUse">
<stop stop-color="#A1BAFF"/>
<stop offset="0.0151" stop-color="#A7BFFF"/>
<stop offset="0.0899" stop-color="#C3D3FF"/>
<stop offset="0.1753" stop-color="#D9E3FF"/>
<stop offset="0.2744" stop-color="#EAF0FF"/>
<stop offset="0.3958" stop-color="#F6F8FF"/>
<stop offset="0.5634" stop-color="#FDFEFF"/>
<stop offset="1" stop-color="white"/>
</linearGradient>
<linearGradient id="paint41_linear_15_235" x1="583.787" y1="326.597" x2="596.883" y2="326.597" gradientUnits="userSpaceOnUse">
<stop stop-color="#7633FF"/>
<stop offset="0.1585" stop-color="#7137FF"/>
<stop offset="0.3535" stop-color="#6243FF"/>
<stop offset="0.5676" stop-color="#4957FF"/>
<stop offset="0.7937" stop-color="#2672FF"/>
<stop offset="1" stop-color="#0090FF"/>
</linearGradient>
<linearGradient id="paint42_linear_15_235" x1="529.13" y1="402.62" x2="628.84" y2="402.62" gradientUnits="userSpaceOnUse">
<stop stop-color="#270036"/>
<stop offset="0.5936" stop-color="#4F008B"/>
<stop offset="1" stop-color="#4C24B1"/>
</linearGradient>
<linearGradient id="paint43_linear_15_235" x1="567.564" y1="427.125" x2="604.337" y2="427.125" gradientUnits="userSpaceOnUse">
<stop stop-color="#311842"/>
<stop offset="0.4611" stop-color="#190C4B"/>
<stop offset="1" stop-color="#000054"/>
</linearGradient>
<linearGradient id="paint44_linear_15_235" x1="502.482" y1="332.122" x2="557.285" y2="332.122" gradientUnits="userSpaceOnUse">
<stop stop-color="#7633FF"/>
<stop offset="0.1585" stop-color="#7137FF"/>
<stop offset="0.3535" stop-color="#6243FF"/>
<stop offset="0.5676" stop-color="#4957FF"/>
<stop offset="0.7937" stop-color="#2672FF"/>
<stop offset="1" stop-color="#0090FF"/>
</linearGradient>
<linearGradient id="paint45_linear_15_235" x1="860.918" y1="617.369" x2="705.861" y2="614.867" gradientUnits="userSpaceOnUse">
<stop stop-color="#7633FF"/>
<stop offset="0.0001" stop-color="#10FF8A"/>
<stop offset="0.0002" stop-color="#624BFF"/>
<stop offset="0.203125" stop-color="#04BFFF"/>
<stop offset="0.303" stop-color="#3F76FF"/>
<stop offset="0.4997" stop-color="#2498FF"/>
<stop offset="1" stop-color="#014493"/>
</linearGradient>
<linearGradient id="paint46_linear_15_235" x1="792.084" y1="789.18" x2="822.511" y2="789.18" gradientUnits="userSpaceOnUse">
<stop stop-color="#270036"/>
<stop offset="0.5936" stop-color="#4F008B"/>
<stop offset="1" stop-color="#4C24B1"/>
</linearGradient>
<linearGradient id="paint47_linear_15_235" x1="803.991" y1="788.461" x2="821.134" y2="788.461" gradientUnits="userSpaceOnUse">
<stop stop-color="#270036"/>
<stop offset="0.5936" stop-color="#4F008B"/>
<stop offset="1" stop-color="#4C24B1"/>
</linearGradient>
<linearGradient id="paint48_linear_15_235" x1="746.432" y1="794.9" x2="758.428" y2="794.9" gradientUnits="userSpaceOnUse">
<stop stop-color="#270036"/>
<stop offset="0.5936" stop-color="#4F008B"/>
<stop offset="1" stop-color="#4C24B1"/>
</linearGradient>
<linearGradient id="paint49_linear_15_235" x1="784.93" y1="576.556" x2="810.939" y2="576.556" gradientUnits="userSpaceOnUse">
<stop stop-color="#7633FF"/>
<stop offset="0.2164" stop-color="#4E53FF"/>
<stop offset="0.4362" stop-color="#2C6DFF"/>
<stop offset="0.6459" stop-color="#1480FF"/>
<stop offset="0.8391" stop-color="#058CFF"/>
<stop offset="1" stop-color="#0090FF"/>
</linearGradient>
<linearGradient id="paint50_linear_15_235" x1="250.233" y1="589.489" x2="324.876" y2="589.489" gradientUnits="userSpaceOnUse">
<stop stop-color="#7633FF"/>
<stop offset="0.2164" stop-color="#4E53FF"/>
<stop offset="0.4362" stop-color="#2C6DFF"/>
<stop offset="0.6459" stop-color="#1480FF"/>
<stop offset="0.8391" stop-color="#058CFF"/>
<stop offset="1" stop-color="#0090FF"/>
</linearGradient>
<linearGradient id="paint51_linear_15_235" x1="247.145" y1="671.063" x2="354.687" y2="836.012" gradientUnits="userSpaceOnUse">
<stop stop-color="#270036"/>
<stop offset="0.5936" stop-color="#4F008B"/>
<stop offset="1" stop-color="#4C24B1"/>
</linearGradient>
<linearGradient id="paint52_linear_15_235" x1="278.933" y1="644.988" x2="258.103" y2="771.671" gradientUnits="userSpaceOnUse">
<stop stop-color="#270036"/>
<stop offset="0.5936" stop-color="#4F008B"/>
<stop offset="1" stop-color="#4C24B1"/>
</linearGradient>
<linearGradient id="paint53_linear_15_235" x1="296.085" y1="557.265" x2="323.597" y2="557.265" gradientUnits="userSpaceOnUse">
<stop stop-color="#7633FF"/>
<stop offset="0.2164" stop-color="#4E53FF"/>
<stop offset="0.4362" stop-color="#2C6DFF"/>
<stop offset="0.6459" stop-color="#1480FF"/>
<stop offset="0.8391" stop-color="#058CFF"/>
<stop offset="1" stop-color="#0090FF"/>
</linearGradient>
<linearGradient id="paint54_linear_15_235" x1="258.57" y1="549.926" x2="272.742" y2="549.926" gradientUnits="userSpaceOnUse">
<stop stop-color="#7633FF"/>
<stop offset="0.2164" stop-color="#4E53FF"/>
<stop offset="0.4362" stop-color="#2C6DFF"/>
<stop offset="0.6459" stop-color="#1480FF"/>
<stop offset="0.8391" stop-color="#058CFF"/>
<stop offset="1" stop-color="#0090FF"/>
</linearGradient>
<linearGradient id="paint55_linear_15_235" x1="351.403" y1="404.34" x2="505.942" y2="404.34" gradientUnits="userSpaceOnUse">
<stop stop-color="#311842"/>
<stop offset="0.4611" stop-color="#190C4B"/>
<stop offset="1" stop-color="#000054"/>
</linearGradient>
<linearGradient id="paint56_linear_15_235" x1="429.911" y1="318.783" x2="433.66" y2="392.538" gradientUnits="userSpaceOnUse">
<stop stop-color="#1DACFF"/>
<stop offset="0.1355" stop-color="#1CA9FB"/>
<stop offset="0.2739" stop-color="#1B9FEF"/>
<stop offset="0.4138" stop-color="#188EDA"/>
<stop offset="0.5546" stop-color="#1476BD"/>
<stop offset="0.6962" stop-color="#0F5898"/>
<stop offset="0.8385" stop-color="#08326B"/>
<stop offset="0.9788" stop-color="#010737"/>
<stop offset="1" stop-color="#00002E"/>
</linearGradient>
<linearGradient id="paint57_linear_15_235" x1="417.278" y1="318.791" x2="442.248" y2="318.791" gradientUnits="userSpaceOnUse">
<stop stop-color="#A1BAFF"/>
<stop offset="0.0151" stop-color="#A7BFFF"/>
<stop offset="0.0899" stop-color="#C3D3FF"/>
<stop offset="0.1753" stop-color="#D9E3FF"/>
<stop offset="0.2744" stop-color="#EAF0FF"/>
<stop offset="0.3958" stop-color="#F6F8FF"/>
<stop offset="0.5634" stop-color="#FDFEFF"/>
<stop offset="1" stop-color="white"/>
</linearGradient>
<linearGradient id="paint58_linear_15_235" x1="409.757" y1="402.513" x2="445.622" y2="402.513" gradientUnits="userSpaceOnUse">
<stop stop-color="#7633FF"/>
<stop offset="0.1287" stop-color="#7231FA"/>
<stop offset="0.2869" stop-color="#682DEB"/>
<stop offset="0.4607" stop-color="#5625D2"/>
<stop offset="0.6457" stop-color="#3E1BAF"/>
<stop offset="0.8374" stop-color="#1F0D83"/>
<stop offset="1" stop-color="#000057"/>
</linearGradient>
<linearGradient id="paint59_linear_15_235" x1="351.403" y1="403.833" x2="418.676" y2="403.833" gradientUnits="userSpaceOnUse">
<stop stop-color="#7633FF"/>
<stop offset="0.1287" stop-color="#7231FA"/>
<stop offset="0.2869" stop-color="#682DEB"/>
<stop offset="0.4607" stop-color="#5625D2"/>
<stop offset="0.6457" stop-color="#3E1BAF"/>
<stop offset="0.8374" stop-color="#1F0D83"/>
<stop offset="1" stop-color="#000057"/>
</linearGradient>
<linearGradient id="paint60_linear_15_235" x1="438.456" y1="400.694" x2="505.942" y2="400.694" gradientUnits="userSpaceOnUse">
<stop stop-color="#7633FF"/>
<stop offset="0.1287" stop-color="#7231FA"/>
<stop offset="0.2869" stop-color="#682DEB"/>
<stop offset="0.4607" stop-color="#5625D2"/>
<stop offset="0.6457" stop-color="#3E1BAF"/>
<stop offset="0.8374" stop-color="#1F0D83"/>
<stop offset="1" stop-color="#000057"/>
</linearGradient>
<linearGradient id="paint61_linear_15_235" x1="458.085" y1="778.568" x2="534.594" y2="778.568" gradientUnits="userSpaceOnUse">
<stop stop-color="#8815FF"/>
<stop offset="0.0103" stop-color="#8917FF"/>
<stop offset="0.2334" stop-color="#9E42FF"/>
<stop offset="0.4497" stop-color="#AF64FF"/>
<stop offset="0.6544" stop-color="#BA7CFF"/>
<stop offset="0.8429" stop-color="#C28BFF"/>
<stop offset="1" stop-color="#C490FF"/>
</linearGradient>
<linearGradient id="paint62_linear_15_235" x1="395.926" y1="779.193" x2="410.932" y2="779.193" gradientUnits="userSpaceOnUse">
<stop stop-color="#7633FF"/>
<stop offset="0.2164" stop-color="#4E53FF"/>
<stop offset="0.4362" stop-color="#2C6DFF"/>
<stop offset="0.6459" stop-color="#1480FF"/>
<stop offset="0.8391" stop-color="#058CFF"/>
<stop offset="1" stop-color="#0090FF"/>
</linearGradient>
<linearGradient id="paint63_linear_15_235" x1="534.153" y1="790.222" x2="604.276" y2="790.222" gradientUnits="userSpaceOnUse">
<stop stop-color="#7633FF"/>
<stop offset="0.2164" stop-color="#4E53FF"/>
<stop offset="0.4362" stop-color="#2C6DFF"/>
<stop offset="0.6459" stop-color="#1480FF"/>
<stop offset="0.8391" stop-color="#058CFF"/>
<stop offset="1" stop-color="#0090FF"/>
</linearGradient>
<linearGradient id="paint64_linear_15_235" x1="616.851" y1="712.354" x2="653.962" y2="712.354" gradientUnits="userSpaceOnUse">
<stop stop-color="#7633FF"/>
<stop offset="0.2164" stop-color="#4E53FF"/>
<stop offset="0.4362" stop-color="#2C6DFF"/>
<stop offset="0.6459" stop-color="#1480FF"/>
<stop offset="0.8391" stop-color="#058CFF"/>
<stop offset="1" stop-color="#0090FF"/>
</linearGradient>
<linearGradient id="paint65_linear_15_235" x1="573.754" y1="727.891" x2="587.811" y2="727.891" gradientUnits="userSpaceOnUse">
<stop stop-color="#7633FF"/>
<stop offset="0.2164" stop-color="#4E53FF"/>
<stop offset="0.4362" stop-color="#2C6DFF"/>
<stop offset="0.6459" stop-color="#1480FF"/>
<stop offset="0.8391" stop-color="#058CFF"/>
<stop offset="1" stop-color="#0090FF"/>
</linearGradient>
<linearGradient id="paint66_linear_15_235" x1="440.144" y1="743.386" x2="394.346" y2="780.151" gradientUnits="userSpaceOnUse">
<stop offset="0.00411293" stop-color="#7633FF" stop-opacity="0"/>
<stop offset="0.0919" stop-color="#7051FF" stop-opacity="0.0882"/>
<stop offset="0.2626" stop-color="#6685FF" stop-opacity="0.2596"/>
<stop offset="0.4302" stop-color="#5EB1FF" stop-opacity="0.4279"/>
<stop offset="0.591" stop-color="#57D3FF" stop-opacity="0.5893"/>
<stop offset="0.7432" stop-color="#53EBFF" stop-opacity="0.7421"/>
<stop offset="0.8833" stop-color="#50FAFF" stop-opacity="0.8829"/>
<stop offset="1" stop-color="#4FFFFF"/>
</linearGradient>
<linearGradient id="paint67_linear_15_235" x1="337.444" y1="466.764" x2="196.261" y2="580.1" gradientUnits="userSpaceOnUse">
<stop offset="0.00411293" stop-color="#7633FF" stop-opacity="0"/>
<stop offset="0.0919" stop-color="#7051FF" stop-opacity="0.0882"/>
<stop offset="0.2626" stop-color="#6685FF" stop-opacity="0.2596"/>
<stop offset="0.4302" stop-color="#5EB1FF" stop-opacity="0.4279"/>
<stop offset="0.591" stop-color="#57D3FF" stop-opacity="0.5893"/>
<stop offset="0.7432" stop-color="#53EBFF" stop-opacity="0.7421"/>
<stop offset="0.8833" stop-color="#50FAFF" stop-opacity="0.8829"/>
<stop offset="1" stop-color="#4FFFFF"/>
</linearGradient>
<linearGradient id="paint68_linear_15_235" x1="441.623" y1="124.245" x2="426.658" y2="409.879" gradientUnits="userSpaceOnUse">
<stop offset="0.00411293" stop-color="#7633FF" stop-opacity="0"/>
<stop offset="0.0919" stop-color="#7051FF" stop-opacity="0.0882"/>
<stop offset="0.2626" stop-color="#6685FF" stop-opacity="0.2596"/>
<stop offset="0.4302" stop-color="#5EB1FF" stop-opacity="0.4279"/>
<stop offset="0.591" stop-color="#57D3FF" stop-opacity="0.5893"/>
<stop offset="0.7432" stop-color="#53EBFF" stop-opacity="0.7421"/>
<stop offset="0.8833" stop-color="#50FAFF" stop-opacity="0.8829"/>
<stop offset="1" stop-color="#4FFFFF"/>
</linearGradient>
<linearGradient id="paint69_linear_15_235" x1="559.566" y1="200.081" x2="699.336" y2="301.66" gradientUnits="userSpaceOnUse">
<stop offset="0.00411293" stop-color="#7633FF" stop-opacity="0"/>
<stop offset="0.0919" stop-color="#7051FF" stop-opacity="0.0882"/>
<stop offset="0.2626" stop-color="#6685FF" stop-opacity="0.2596"/>
<stop offset="0.4302" stop-color="#5EB1FF" stop-opacity="0.4279"/>
<stop offset="0.591" stop-color="#57D3FF" stop-opacity="0.5893"/>
<stop offset="0.7432" stop-color="#53EBFF" stop-opacity="0.7421"/>
<stop offset="0.8833" stop-color="#50FAFF" stop-opacity="0.8829"/>
<stop offset="1" stop-color="#4FFFFF"/>
</linearGradient>
<linearGradient id="paint70_linear_15_235" x1="769.09" y1="524.8" x2="831.436" y2="543.867" gradientUnits="userSpaceOnUse">
<stop offset="0.00411293" stop-color="#7633FF" stop-opacity="0"/>
<stop offset="0.0919" stop-color="#7051FF" stop-opacity="0.0882"/>
<stop offset="0.2626" stop-color="#6685FF" stop-opacity="0.2596"/>
<stop offset="0.4302" stop-color="#5EB1FF" stop-opacity="0.4279"/>
<stop offset="0.591" stop-color="#57D3FF" stop-opacity="0.5893"/>
<stop offset="0.7432" stop-color="#53EBFF" stop-opacity="0.7421"/>
<stop offset="0.8833" stop-color="#50FAFF" stop-opacity="0.8829"/>
<stop offset="1" stop-color="#4FFFFF"/>
</linearGradient>
</defs>
</svg>
