<svg width="87" height="70" viewBox="0 0 87 70" fill="none" xmlns="http://www.w3.org/2000/svg">
<path d="M87 27.4062C87 24.2121 84.3896 21.625 81.1667 21.625C77.9437 21.625 75.3333 24.2121 75.3333 27.4062C75.3333 30.0367 77.1052 32.2553 79.526 32.9563C79.4823 34.1197 79.2198 35.0158 78.724 35.6229C77.601 37.0104 75.1292 37.2416 72.5115 37.4801C70.4552 37.668 68.326 37.8703 66.5833 38.7014V28.2951C68.9531 27.558 70.6667 25.3684 70.6667 22.7812C70.6667 19.5871 68.0562 17 64.8333 17C61.6104 17 59 19.5871 59 22.7812C59 25.3684 60.7135 27.558 63.0833 28.2951V42.6977C60.7135 43.442 59 45.6316 59 48.2188C59 51.4129 61.6104 54 64.8333 54C68.0562 54 70.6667 51.4129 70.6667 48.2188C70.6667 45.7617 69.1208 43.6588 66.9333 42.8277C67.1594 42.452 67.5021 42.1195 68.0198 41.8594C69.201 41.2668 70.9656 41.1078 72.8396 40.9344C75.9167 40.6525 79.4021 40.3273 81.4583 37.798C82.4792 36.5406 82.9969 34.9219 83.0333 32.8912C85.3375 32.1107 87 29.95 87 27.4062ZM64.8333 21.625C65.475 21.625 66 22.1453 66 22.7812C66 23.4172 65.475 23.9375 64.8333 23.9375C64.1917 23.9375 63.6667 23.4172 63.6667 22.7812C63.6667 22.1453 64.1917 21.625 64.8333 21.625ZM64.8333 49.375C64.1917 49.375 63.6667 48.8547 63.6667 48.2188C63.6667 47.5828 64.1917 47.0625 64.8333 47.0625C65.475 47.0625 66 47.5828 66 48.2188C66 48.8547 65.475 49.375 64.8333 49.375ZM81.1667 26.25C81.8083 26.25 82.3333 26.7703 82.3333 27.4062C82.3333 28.0422 81.8083 28.5625 81.1667 28.5625C80.525 28.5625 80 28.0422 80 27.4062C80 26.7703 80.525 26.25 81.1667 26.25Z" fill="#FCD34D"/>
<path d="M25.0488 41.1094V43.1357C25.0488 46.1305 23.9746 48.694 21.8262 50.8262C19.6777 52.9421 17.0817 54 14.0381 54C10.9782 54 8.38216 52.9421 6.25 50.8262C4.10156 48.694 3.02734 46.1305 3.02734 43.1357V27.9746C3.02734 24.9798 4.10156 22.4245 6.25 20.3086C8.39844 18.1764 10.9945 17.1104 14.0381 17.1104C17.1143 17.1104 19.7103 18.1764 21.8262 20.3086C23.9746 22.457 25.0488 25.0124 25.0488 27.9746V28.1943L21.1426 29.9766V27.9014C21.1426 25.9645 20.4427 24.3044 19.043 22.9209C17.6432 21.5374 15.9749 20.8457 14.0381 20.8457C12.0687 20.8457 10.3923 21.5374 9.00879 22.9209C7.62533 24.2881 6.93359 25.9482 6.93359 27.9014V43.209C6.93359 45.1458 7.62533 46.806 9.00879 48.1895C10.3923 49.5729 12.0687 50.2646 14.0381 50.2646C15.9749 50.2646 17.6432 49.5729 19.043 48.1895C20.4427 46.8223 21.1426 45.1621 21.1426 43.209V42.916L25.0488 41.1094ZM33.1787 17.5986H52.7588L51.0498 21.5049H44.0674V49.6055H52.7588L51.0498 53.5117H31.4697L33.1787 49.6055H40.1611V21.5049H31.4697L33.1787 17.5986Z" fill="#826DFD"/>
</svg>
